<svg xmlns="http://www.w3.org/2000/svg" xmlns:xlink="http://www.w3.org/1999/xlink" width="390.806" height="350.67" viewBox="0 0 390.806 350.67"><defs><linearGradient id="a" x1="14.929" y1="1" x2="14.929" gradientUnits="objectBoundingBox"><stop offset="0" stop-color="gray" stop-opacity="0.251"/><stop offset="0.54" stop-color="gray" stop-opacity="0.122"/><stop offset="1" stop-color="gray" stop-opacity="0.102"/></linearGradient></defs><g transform="translate(-4402.466 -66.821)"><rect width="235.215" height="283.251" rx="19.8" transform="translate(4558.057 66.821)" fill="#464353"/><rect width="194.634" height="226.104" transform="translate(4578.348 95.394)" fill="#4285f4" opacity="0.1"/><circle cx="8.283" cy="8.283" r="8.283" transform="translate(4667.381 328.125)" fill="#fff"/><path d="M808.593,143.645a3.913,3.913,0,1,1,3.913-3.913A3.913,3.913,0,0,1,808.593,143.645Z" transform="translate(3867.072 -56.346)" fill="#fff"/><path d="M808.294,135.778a3.684,3.684,0,1,1-3.684,3.684,3.684,3.684,0,0,1,3.684-3.684m0-.458a4.118,4.118,0,1,0,2.92,1.214A4.141,4.141,0,0,0,808.294,135.32Z" transform="translate(3867.37 -56.075)" fill="#fff"/><rect width="40.366" height="54.877" rx="4.3" transform="translate(4587.39 165.437)" fill="#fff" stroke="#fff" stroke-miterlimit="10" stroke-width="1"/><rect width="32.797" height="17.412" rx="7.14" transform="translate(4591.175 179.266)" fill="#4285f4" opacity="0.5"/><rect width="19.106" height="2.705" rx="1.352" transform="translate(4598.021 203.781)" fill="#4285f4"/><rect width="40.366" height="54.877" rx="4.3" transform="translate(4655.634 165.437)" fill="#fff" stroke="#fff" stroke-miterlimit="10" stroke-width="1"/><rect width="19.343" height="10.269" rx="1.46" transform="translate(4666.251 174.008)" fill="#4285f4" opacity="0.5"/><rect width="24.693" height="2.705" rx="1.352" transform="translate(4663.423 193.901)" fill="#4285f4"/><rect width="24.693" height="2.705" rx="1.352" transform="translate(4663.423 198.944)" fill="#4285f4"/><rect width="40.366" height="54.877" rx="4.3" transform="translate(4723.572 126.453)" fill="#fff" stroke="#fff" stroke-miterlimit="10" stroke-width="1"/><rect width="26.281" height="12.264" rx="1.46" transform="translate(4730.615 134.969)" fill="#4285f4" opacity="0.5"/><rect width="26.281" height="12.264" rx="1.46" transform="translate(4730.615 152.793)" fill="#4285f4" opacity="0.5"/><rect width="8.622" height="3.784" rx="1.892" transform="translate(4728.515 174.942)" fill="#4285f4"/><rect width="8.622" height="3.784" rx="1.892" transform="translate(4739.447 174.942)" fill="#4285f4"/><rect width="8.622" height="3.784" rx="1.892" transform="translate(4750.379 174.942)" fill="#4285f4"/><rect width="40.366" height="54.877" rx="4.3" transform="translate(4723.476 204.422)" fill="#fff" stroke="#fff" stroke-miterlimit="10" stroke-width="1"/><rect width="12.063" height="12.264" rx="1.46" transform="translate(4726.593 210.837)" fill="#4285f4" opacity="0.5"/><rect width="24.693" height="2.705" rx="1.352" transform="translate(4731.315 230.57)" fill="#4285f4"/><rect width="24.693" height="2.705" rx="1.352" transform="translate(4731.315 236.038)" fill="#4285f4"/><rect width="24.693" height="2.705" rx="1.352" transform="translate(4731.315 241.507)" fill="#4285f4"/><path d="M736.683,376.728l-.618.3-5.006,2.407-.458.215a.247.247,0,0,1-.334-.133.268.268,0,0,1,0-.092V378a.243.243,0,0,0-.243-.243H717.857a.247.247,0,0,1-.247-.243v-2.009a.247.247,0,0,1,.247-.243h12.182a.247.247,0,0,0,.243-.247v-1.455a.3.3,0,0,1,0-.092.247.247,0,0,1,.334-.128l.458.215,4.993,2.43.618.3a.242.242,0,0,1,0,.439Z" transform="translate(3914.297 -185.161)" fill="#fff" stroke="#fff" stroke-miterlimit="10" stroke-width="1"/><path d="M886.654,353.361l-.4.554-3.277,4.466-.288.4a.252.252,0,0,1-.357.041.22.22,0,0,1-.055-.073l-.668-1.254a.252.252,0,0,0-.334-.105l-10.754,5.725a.243.243,0,0,1-.329-.1l-.943-1.78a.243.243,0,0,1,.1-.329l10.754-5.716a.242.242,0,0,0,.1-.329l-.682-1.286a.159.159,0,0,1-.027-.087.238.238,0,0,1,.233-.27h.49l5.546-.2.686-.023a.242.242,0,0,1,.206.371Z" transform="translate(3832.068 -174.135)" fill="#fff" stroke="#fff" stroke-miterlimit="10" stroke-width="1"/><path d="M886.432,393.791h-6.713a.242.242,0,0,1-.243-.261.206.206,0,0,1,.023-.087l.613-1.286a.243.243,0,0,0-.114-.325l-10.983-5.272a.247.247,0,0,1-.114-.329l.87-1.808a.238.238,0,0,1,.325-.114l10.983,5.276a.252.252,0,0,0,.329-.114l.631-1.313a.238.238,0,0,1,.407-.046l.307.38,3.446,4.357.426.54a.243.243,0,0,1-.192.4Z" transform="translate(3832.253 -191.109)" fill="#fff" stroke="#fff" stroke-miterlimit="10" stroke-width="1"/><path d="M416.727,606.406l-.037,1.341-2.334,82.4H410.43l1.927-82.4.037-1.547Z" transform="translate(4101.394 -301.789)" fill="#504f60"/><path d="M416.727,606.406l-.037,1.341-2.334,82.4H410.43l1.927-82.4.037-1.547Z" transform="translate(4101.394 -301.789)" opacity="0.1"/><path d="M415.832,754.536l-2.938-.009-43.68-.092-2.325,0,1.236-3.821h47.4Z" transform="translate(4125.009 -380.115)" fill="#504f60"/><path d="M419.01,606.406l-.037,1.341H414.64l.037-1.547Z" transform="translate(4099.11 -301.789)" opacity="0.1"/><rect width="7.281" height="2.737" transform="translate(4512.497 302.603)" fill="#504f60"/><path d="M369.6,750.61l-.389,3.826-2.325,0,1.236-3.821Z" transform="translate(4125.009 -380.115)" opacity="0.1"/><path d="M369.63,602.14l-.124,1.185-9.688,95.564-4.439-.206,10.209-95.358.114-1.085Z" transform="translate(4131.252 -299.587)" fill="#504f60"/><path d="M469.886,754.536l-2.938-.009-.4-3.917h3.025Z" transform="translate(4070.955 -380.115)" opacity="0.1"/><path d="M467.11,698.683l-4.443.206-9.688-95.564-.119-1.185,3.922.1.114,1.085Z" transform="translate(4078.38 -299.587)" fill="#504f60"/><rect width="97.889" height="93.862" transform="translate(4466.497 208.325)" fill="#fff"/><rect width="140.946" height="93.862" rx="4.13" transform="translate(4445.025 208.325)" fill="#e8f0fd" opacity="0.998"/><path d="M462.747,346.538V369.2H458.93V346.538a1.908,1.908,0,0,1,3.817,0Z" transform="translate(4054.601 -169.601)" fill="#504f60"/><rect width="3.821" height="2.064" transform="translate(4513.531 197.539)" opacity="0.1"/><path d="M462.474,396.115V403.6H455.66v-7.487a.915.915,0,0,1,.915-.915h4.956a.915.915,0,0,1,.943.915Z" transform="translate(4056.374 -197.029)" fill="#504f60"/><circle cx="1.446" cy="1.446" r="1.446" transform="translate(4513.993 201.461)" opacity="0.1"/><circle cx="1.446" cy="1.446" r="1.446" transform="translate(4513.993 201.15)" fill="#3f3d56"/><rect width="6.814" height="0.929" transform="translate(4512.034 205.643)" opacity="0.1"/><rect width="12.392" height="2.064" transform="translate(4509.243 206.884)" opacity="0.1"/><rect width="12.392" height="2.064" transform="translate(4509.243 206.261)" fill="#504f60"/><path d="M361.387,596h51.061a2.746,2.746,0,0,1,2.746,2.746H358.65A2.746,2.746,0,0,1,361.387,596Z" transform="translate(4129.479 -296.257)" opacity="0.1"/><path d="M377.8,602.241l3.926-.1-.124,1.185H377.69Z" transform="translate(4119.151 -299.587)" opacity="0.1"/><rect width="7.281" height="1.135" transform="translate(4512.497 302.603)" opacity="0.1"/><path d="M456.9,603.325h-3.917l-.119-1.185,3.922.1Z" transform="translate(4078.38 -299.587)" opacity="0.1"/><path d="M361.387,597.4h51.061a2.746,2.746,0,0,1,2.746,2.746H358.65A2.746,2.746,0,0,1,361.4,597.4Z" transform="translate(4129.479 -297.016)" fill="#504f60"/><path d="M539.917,441.47a.682.682,0,0,1,.783.75,90.739,90.739,0,0,0,.48,19.362c.334,2.924.787,6.018,2.082,8.187a.691.691,0,0,1-.092.851,1.83,1.83,0,0,1-1.272.38l-20.423.114a.682.682,0,0,1-.668-.842c1.643-7,1.291-14.644.632-21.906-.325-3.574-.513-5.491,2.155-5.743,2.746-.247,5.491-.362,8.237-.59C532.49,441.978,537.771,441.823,539.917,441.47Z" transform="translate(4021.05 -222.121)" fill="#fff" stroke="#33313f" stroke-miterlimit="10" stroke-width="3"/><path d="M524.349,533.16a.682.682,0,0,0-.783.751,90.442,90.442,0,0,1-.485,19.362c-.329,2.924-.783,6.018-2.078,8.191a.682.682,0,0,0,.091.847,1.83,1.83,0,0,0,1.272.38l20.423.119a.691.691,0,0,0,.668-.847c-1.643-7-1.291-14.644-.632-21.906.325-3.574.513-5.491-2.155-5.743s-5.491-.362-8.237-.59C531.776,533.668,526.5,533.513,524.349,533.16Z" transform="translate(4020.991 -271.852)" fill="#fff" stroke="#33313f" stroke-miterlimit="10" stroke-width="3"/><path d="M536.349,558.852a60.569,60.569,0,0,1,7.121.087.673.673,0,0,1,.6.595l.224,1.872a.266.266,0,0,1-.055.243.252.252,0,0,1-.174.046c-1,.027-2-.087-2.988,0-.618.05-1.231.169-1.83.238a21.839,21.839,0,0,1-3.048.055,15.358,15.358,0,0,1-4.242-.522s.082-1.551.082-1.7c0-.723-.023-.787.723-.805Z" transform="translate(4014.99 -285.756)" fill="none" stroke="#33313f" stroke-linecap="round" stroke-miterlimit="10" stroke-width="2"/><path d="M536.349,573.618a59.594,59.594,0,0,0,7.121-.092.673.673,0,0,0,.6-.595l.224-1.867a.275.275,0,0,0-.055-.247.252.252,0,0,0-.174-.046c-1-.027-2,.091-2.988,0-.618-.046-1.231-.165-1.83-.233a21.168,21.168,0,0,0-3.048-.055,15.356,15.356,0,0,0-4.242.522s.082,1.547.082,1.7c0,.723-.023.783.723.805Z" transform="translate(4014.99 -292.083)" fill="none" stroke="#33313f" stroke-linecap="round" stroke-miterlimit="10" stroke-width="2"/><path d="M536.349,584.512a59.594,59.594,0,0,1,7.121.092.673.673,0,0,1,.6.595l.224,1.867a.275.275,0,0,1-.055.247.252.252,0,0,1-.174.046c-1,.027-2-.092-2.988,0-.618.046-1.231.169-1.83.238a21.848,21.848,0,0,1-3.048.05,15.354,15.354,0,0,1-4.242-.517s.082-1.551.082-1.7c0-.723-.023-.782.723-.8Z" transform="translate(4014.99 -299.674)" fill="none" stroke="#33313f" stroke-linecap="round" stroke-miterlimit="10" stroke-width="2"/><path d="M542.94,499a3.025,3.025,0,0,1,.2,1.593.238.238,0,0,1-.032.124.247.247,0,0,1-.192.069l-4.347.169s.243-1.281.275-1.373c.151-.522.531-.384,1.02-.412Z" transform="translate(4011.405 -253.329)" fill="#fff" stroke="#33313f" stroke-linecap="round" stroke-miterlimit="10" stroke-width="2"/><path d="M557.285,499a3.025,3.025,0,0,1,.2,1.593.234.234,0,0,1-.027.124.256.256,0,0,1-.192.069l-4.352.169s.247-1.281.279-1.373c.146-.522.526-.384,1.021-.412Z" transform="translate(4003.627 -253.329)" fill="#fff" stroke="#33313f" stroke-linecap="round" stroke-miterlimit="10" stroke-width="2"/><path d="M540.664,451.258l.586,5.034A1.373,1.373,0,0,1,540,457.807a65.356,65.356,0,0,1-11.157-.073,1.373,1.373,0,0,1-1.24-1.309,19.543,19.543,0,0,0-.394-2.668c-.151-.915-.316-1.8.764-2.068a18.714,18.714,0,0,1,3.739-.1q2.123-.041,4.233-.119C536.339,451.469,540.664,451.235,540.664,451.258Z" transform="translate(4017.626 -227.434)" fill="none" stroke="#33313f" stroke-miterlimit="10" stroke-width="3"/><path d="M540.653,483l.577-5.034a1.373,1.373,0,0,0-1.249-1.515,65.827,65.827,0,0,0-11.157.069,1.373,1.373,0,0,0-1.24,1.313,19.533,19.533,0,0,1-.393,2.668c-.151.915-.316,1.8.764,2.068a18.709,18.709,0,0,0,3.739.1c1.414.027,2.823.064,4.233.119C536.329,482.8,540.653,483.034,540.653,483Z" transform="translate(4017.637 -240.987)" fill="none" stroke="#33313f" stroke-miterlimit="10" stroke-width="3"/><path d="M536.51,540.4q-.229,2.512-.288,5.034a23.83,23.83,0,0,1-4.993-.572.883.883,0,0,1-.819-1.08c-.032-1.043-.581-3.373.888-3.519C531.737,540.218,536.505,540.483,536.51,540.4Z" transform="translate(4015.9 -275.707)" fill="none" stroke="#33313f" stroke-linecap="round" stroke-miterlimit="10" stroke-width="2"/><path d="M345.8,490.6a1.46,1.46,0,0,1,1.611,1.588,93.392,93.392,0,0,0,.577,18.4,23.548,23.548,0,0,0,1.794,7.67,1.2,1.2,0,0,1-1.062,1.748h0l-20.263.119a.805.805,0,0,1-.792-.979c1.606-6.965,1.254-14.57.6-21.773-.329-3.574-.513-5.491,2.151-5.743,2.746-.243,5.491-.357,8.214-.59C339.213,490.993,343.368,490.865,345.8,490.6Z" transform="translate(4125.806 -248.768)" fill="#fff" stroke="#33313f" stroke-linecap="round" stroke-miterlimit="10" stroke-width="3"/><path d="M424.777,490.35a.728.728,0,0,0-.833.805,90.759,90.759,0,0,1-.49,19.3c-.329,2.924-.783,6-2.073,8.178a.723.723,0,0,0,.192.947,1.917,1.917,0,0,0,1.162.293l20.369.119a.732.732,0,0,0,.709-.915c-1.625-6.988-1.277-14.621-.618-21.851.325-3.574.513-5.491-2.151-5.743-2.746-.243-5.491-.357-8.237-.59C432.136,490.849,426.964,490.7,424.777,490.35Z" transform="translate(4075.021 -248.633)" fill="#fff" stroke="#33313f" stroke-miterlimit="10" stroke-width="3"/><line x2="10.36" y2="13.82" transform="translate(4459.477 245.877)" fill="#fff" stroke="#33313f" stroke-linecap="round" stroke-miterlimit="10" stroke-width="2"/><line x1="10.017" y2="15.545" transform="translate(4459.82 244.843)" fill="#fff" stroke="#33313f" stroke-linecap="round" stroke-miterlimit="10" stroke-width="2"/><line x2="5.642" y2="7.528" transform="translate(4505.71 246.527)" fill="#fff" stroke="#33313f" stroke-linecap="round" stroke-miterlimit="10" stroke-width="2"/><line x1="5.455" y2="8.47" transform="translate(4505.897 245.959)" fill="#fff" stroke="#33313f" stroke-linecap="round" stroke-miterlimit="10" stroke-width="2"/><path d="M343.089,539.222a60.672,60.672,0,0,1,7.125.087.682.682,0,0,1,.6.595l.22,1.872a.288.288,0,0,1-.05.247.321.321,0,0,1-.174.046c-1,.027-2-.092-2.993,0-.618.046-1.226.165-1.83.233a21.83,21.83,0,0,1-3.048.055,15.3,15.3,0,0,1-4.238-.522c-.027,0,.082-1.547.082-1.7,0-.723-.027-.783.718-.805Z" transform="translate(4119.811 -275.109)" fill="none" stroke="#33313f" stroke-linecap="round" stroke-miterlimit="10" stroke-width="2"/><path d="M438.2,524.122a59.683,59.683,0,0,1,7.125.091.673.673,0,0,1,.6.595l.22,1.867a.289.289,0,0,1-.05.247.256.256,0,0,1-.174.046c-1,.027-2-.091-2.993,0-.618.046-1.226.169-1.83.233a21.168,21.168,0,0,1-3.048.055,15.36,15.36,0,0,1-4.242-.522c-.023,0,.082-1.547.082-1.7,0-.723-.023-.782.723-.805Z" transform="translate(4068.224 -266.919)" fill="none" stroke="#33313f" stroke-linecap="round" stroke-miterlimit="10" stroke-width="2"/><path d="M441.921,535.452a60.594,60.594,0,0,0-7.121.087.673.673,0,0,0-.6.595l-.21,1.867a.261.261,0,0,0,.05.247.252.252,0,0,0,.174.046c1,.027,2-.087,2.993,0,.618.046,1.226.169,1.83.238a22.565,22.565,0,0,0,3.048.055,15.316,15.316,0,0,0,4.242-.522c.023,0-.082-1.551-.082-1.7,0-.728.027-.787-.718-.805Z" transform="translate(4068.136 -273.064)" fill="none" stroke="#33313f" stroke-linecap="round" stroke-miterlimit="10" stroke-width="2"/><path d="M386.63,527.949s6.732-.343,7.94,0" transform="translate(4093.815 -268.948)" fill="none" stroke="#33313f" stroke-miterlimit="10" stroke-width="3"/><path d="M402.975,520.21s2.933,2.933,2.933,3.624-3.8,3.107-3.8,3.107" transform="translate(4085.419 -264.833)" fill="none" stroke="#33313f" stroke-miterlimit="10" stroke-width="3"/><path d="M482.84,510.9s6.1-2.856,7.349-2.993" transform="translate(4041.632 -258.161)" fill="none" stroke="#33313f" stroke-miterlimit="10" stroke-width="3"/><path d="M495.92,500.58s3.821,1.611,4.082,2.247-2.343,4.311-2.343,4.311" transform="translate(4034.538 -254.186)" fill="none" stroke="#33313f" stroke-miterlimit="10" stroke-width="3"/><path d="M482.7,530.43s6.2,2.631,7.139,3.473" transform="translate(4041.708 -270.376)" fill="none" stroke="#33313f" stroke-miterlimit="10" stroke-width="3"/><path d="M497.35,530.89s1.373,3.922,1.052,4.544-4.773,1.135-4.773,1.135" transform="translate(4035.78 -270.625)" fill="none" stroke="#33313f" stroke-miterlimit="10" stroke-width="3"/><path d="M530.1,499a3.025,3.025,0,0,1,.2,1.593.234.234,0,0,1-.028.124.256.256,0,0,1-.192.069l-4.352.169s.247-1.281.279-1.373c.146-.522.531-.384,1.021-.412Z" transform="translate(4018.37 -253.329)" fill="#fff" stroke="#33313f" stroke-linecap="round" stroke-miterlimit="10" stroke-width="2"/><path d="M310.214,562.257l1.538-1.432-1.373-.055-.718,1.1Z" transform="translate(4156.05 -277.149)" fill="#33313f"/><path d="M286.7,573.259l1.629-2.091.362-.375,4.988-5.226,1.7-1.776.8-.1,1.144-1.135.673.59-1.112,1.3.018.682-1.734,1.881-4.9,5.318-.316.339-1.968,1.821Z" transform="translate(4168.503 -278.12)" fill="#65617d"/><path d="M291.05,574.356l4.988-5.226,1.483,1.446-4.9,5.318Z" transform="translate(4166.144 -281.683)" fill="#33313f"/><path d="M278.483,457.23a21.964,21.964,0,0,1-3.748-4.576c-2.2-3.423-5.867-5.272-8.384-6.192v-1.112l.156-.032-.069-1.034h.069l-.178-2.746v-.023h0l-.906-13.623s-3.226-9.084,2.508-17.463.357-16.415-5.034-19.559c0,0-2.508-13.271-.357-16.415a93.2,93.2,0,0,0-9.006-4.553c-.05-.165-.092-.329-.133-.5-.059-1.236-.137-2.471-.206-3.707a13.488,13.488,0,0,1,.352-1.9c.069-.261.146-.522.229-.792a13.628,13.628,0,0,0,8.763-12.635,13.271,13.271,0,0,0-.851-4.686,5.89,5.89,0,0,0,.654-1.528,6.046,6.046,0,0,0-.851-4.357,16.256,16.256,0,0,0-7.619-7.084c-3.725-1.51-9.331-1.153-13.211-.686-2.178.261-4.663.988-5.45,2.984a20.794,20.794,0,0,0-.494,2.288c-.815,3.048-4.334,4.466-6.507,6.8-1.922,2.059-2.746,4.846-3.386,7.56a69.2,69.2,0,0,0-1.258,23.727c.22,1.831.513,3.638.824,5.45-1.309,1.83-2.489,5.066-1.949,10.685l-4.3,20.254-1.789,11.875a10.343,10.343,0,0,0,3.2,9.079,79.717,79.717,0,0,1,8.109,10.113,24,24,0,0,0-1.3,8.049c.046,1.245.114,2.448.2,3.592a31.726,31.726,0,0,0,1.373,7.157c.5,4.878,1.5,11.115,3.441,15.1l.714,21.3s-1.075,19.559-3.2,23.4,4.654,36.321,4.654,36.321v4.54l-1.144,3.359-.288-.215c-5.372,6.635,0,9.079,0,9.079s1.464.069,3.8.16a4.283,4.283,0,0,0,2.288,4.732s30.445,1.4,35.822,0,3.94-6.288,1.071-5.949a13.028,13.028,0,0,1-4.288-.558c1.67-1.945.334-4.576-1.8-4.329-2.865.348-9.312-2.187-9.312-2.187l-.032.041a4.809,4.809,0,0,0-.632-.192,71.695,71.695,0,0,1-7.088-1.982c-1.373-2.943-4.576-10.85-2.288-16.982a30.332,30.332,0,0,0,1.373-10.04,113.946,113.946,0,0,1,4.718-31.878l4.3-14.644s6.091-17.815,6.448-22.7l-.023-7.111c5.034,3.2,9.038,2.242,11.591.746a2.746,2.746,0,0,0,.43-4.416Zm-47.807-37.067c.124-.513.224-1.071.311-1.661.842,0,1.689,0,2.531-.027a12.891,12.891,0,0,1,1.272,6.864c-1.94-.6-4.842-2.068-4.114-5.153Z" transform="translate(4186.239 -162.544)" fill="url(#a)"/><path d="M253.613,828.708l-1.373,4.119,4.48,4.48,14.822,3.446,10.685-1.034-.691-3.794h0a4.576,4.576,0,0,0-3.4-3.336c-4.393-1.034-12.768-3.386-14.529-6.658Z" transform="translate(4166.706 -430.65)" fill="#db8b8b"/><path d="M253.613,828.708l-1.373,4.119,4.48,4.48,14.822,3.446,10.685-1.034-.691-3.794h0a4.576,4.576,0,0,0-3.4-3.336c-4.393-1.034-12.768-3.386-14.529-6.658Z" transform="translate(4166.706 -430.65)" opacity="0.1"/><path d="M276.048,845.632l-2.068-2.746,2.068-3.2s6.2,2.5,8.96,2.16,4.119,4.48-1.034,5.857-34.468,0-34.468,0-5.171-2.412,0-8.96l4.48,3.446s7.583,4.119,11.376,3.446Z" transform="translate(4169.435 -437.598)" fill="#2e3037"/><path d="M295,850.279l-10.685,1.034-14.822-3.45L265,843.383l.366-1.094.513-1.538.5-1.506,9.994-2.746a6.178,6.178,0,0,0,2.027,2.027c3.245,2.219,9.079,3.826,12.5,4.627.142.037.288.078.426.128a4.54,4.54,0,0,1,2.97,3.2Z" transform="translate(4159.785 -436.383)" fill="#db8b8b"/><path d="M295,857.14l-10.685,1.034-14.822-3.45L265,850.244l.366-1.094,4.119,3.162s7.587,4.119,11.376,3.446h10.681l-2.068-2.746,1.858-2.869a4.539,4.539,0,0,1,2.97,3.2Z" transform="translate(4159.785 -443.244)" opacity="0.1"/><path d="M288.818,856.182l-2.068-2.746,2.068-3.2s6.205,2.5,8.96,2.16,4.119,4.48-1.03,5.862-34.472,0-34.472,0-5.171-2.416,0-8.965l4.48,3.446s7.587,4.119,11.376,3.45Z" transform="translate(4162.509 -443.32)" fill="#2e3037"/><path d="M284.593,405.828s-16.543,1.721-14.131-5.171a12.356,12.356,0,0,0,.508-6.086,16.89,16.89,0,0,0-2.92-7.011l15.509,2.412a19.366,19.366,0,0,0-2.1,4.979C279.609,402.268,284.593,405.828,284.593,405.828Z" transform="translate(4158.131 -192.886)" fill="#db8b8b"/><path d="M242.44,599.21s.343,14.822,3.789,22.062l.691,21.023s-1.034,19.307-3.1,23.1,4.48,35.85,4.48,35.85v5.514s11.029,4.119,14.131-.691l-3.1-41.016,1.373-56.873Z" transform="translate(4172.021 -307.681)" fill="#35323e"/><path d="M242.43,599.21s.343,14.822,3.789,22.062l.691,21.023s-1.034,19.307-3.1,23.1,4.48,35.85,4.48,35.85v5.514s11.029,4.119,14.131-.691l-3.1-41.016,1.373-56.873Z" transform="translate(4172.027 -307.681)" opacity="0.1"/><path d="M222.756,495.27l-2.068,5.514-1.721,11.72a10.365,10.365,0,0,0,3.1,8.96c4.119,4.119,9.651,12.754,9.651,12.754l6.548-19.646s-6.548-1.034-5.491-5.514.686-12.754.686-12.754Z" transform="translate(4184.809 -251.306)" fill="#4285f4"/><path d="M279.475,838.518c-4.425,6.96-11.3,3.016-12.525,2.233l.5-1.506,9.994-2.746A6.178,6.178,0,0,0,279.475,838.518Z" transform="translate(4158.728 -436.383)" opacity="0.1"/><path d="M278.777,583.241c-.348,4.823-6.205,22.423-6.205,22.423l-4.119,14.465a114.994,114.994,0,0,0-4.567,31.447,30.713,30.713,0,0,1-1.318,9.907c-2.746,7.583,2.746,17.925,2.746,17.925-4.823,8.617-13.1,2.746-13.1,2.746v-5.491s-6.53-30-4.8-35.859,2.416-21.719,2.416-21.719V590.481a32.445,32.445,0,0,1-9.459-20.593c-.082-1.13-.151-2.316-.192-3.547-.279-7.78,5.034-16.9,7.111-20.135.5-.787.815-1.226.815-1.226l30.427,12.072.069.027v3.785Z" transform="translate(4173.254 -278.268)" fill="#35323e"/><path d="M283.559,389.972a19.367,19.367,0,0,0-2.1,4.979,13.463,13.463,0,0,1-10.489-.38,16.891,16.891,0,0,0-2.92-7.011Z" transform="translate(4158.131 -192.886)" opacity="0.1"/><circle cx="13.445" cy="13.445" r="13.445" transform="translate(4421.353 175.367)" fill="#db8b8b"/><path d="M285.738,560.836l-.151.027c-14.452,2.97-32.587-12.09-32.587-12.09a17.39,17.39,0,0,0,1.254-2.567c.5-.787.815-1.226.815-1.226l30.422,12.072.078,1.2Z" transform="translate(4166.293 -278.268)" opacity="0.1"/><path d="M265.613,417.176s-19.3-11.72-25.508-6.9l-8.617,11.029s-5.514,1.725-4.48,12.754l-4.119,19.993,12.406,3.1s7.24,6.892,1.373,16.891c0,0,18.268,15.165,32.747,12.063l-1.043-16.186s-3.1-8.965,2.412-17.234.343-16.2-4.823-19.3C265.956,433.376,263.545,420.274,265.613,417.176Z" transform="translate(4182.625 -204.577)" fill="#4285f4"/><path d="M314.319,580.38s7.24,1.373,10.685,6.9a21.445,21.445,0,0,0,3.611,4.508,2.746,2.746,0,0,1-.43,4.357c-2.746,1.647-7.194,2.659-12.813-1.972C305.7,586.242,314.319,580.38,314.319,580.38Z" transform="translate(4134.953 -297.468)" fill="#db8b8b"/><path d="M279.214,440.7s-6.892-.691-8.617,17.234-4.48,22.057-4.48,22.057-1.725,9.308,2.412,14.822,12.063,17.275,12.063,17.275,8.622,2.416,10.342-6.205L280.248,485.89s-1.721-6.9,2.412-11.72S289.9,437.264,279.214,440.7Z" transform="translate(4159.373 -221.567)" opacity="0.1"/><path d="M280.724,438.473s-6.9-.691-8.617,17.234-4.48,22.057-4.48,22.057-1.725,9.317,2.412,14.808S282.1,509.806,282.1,509.806s8.617,2.416,10.342-6.2l-10.685-19.993s-1.725-6.9,2.412-11.72S291.4,435.022,280.724,438.473Z" transform="translate(4158.554 -220.359)" fill="#4285f4"/><path d="M303.478,467s.686,10.685-2.416,16.547-3.1,13.44,0,17.577" transform="translate(4141.488 -235.973)" opacity="0.1"/><path d="M286.717,431.468s-2.746-2.746-10.685-3.1-11.372-2.746-11.372-2.746" transform="translate(4159.97 -213.529)" opacity="0.1"/><path d="M245.416,336.318c-2.1.256-4.489.975-5.244,2.947a20.26,20.26,0,0,0-.48,2.288c-.783,3.011-4.169,4.411-6.26,6.713-1.83,2.032-2.659,4.782-3.258,7.459a70.075,70.075,0,0,0-1.231,23.4c.673,5.716,2.046,11.34,2.435,17.083s-.32,11.784-3.46,16.607c-1.373,2.078-3.13,3.9-4.087,6.182,1.977,1.6,4.7,1.83,7.249,1.917q4.448.151,8.9,0a9.488,9.488,0,0,0,4.521-.943,7.006,7.006,0,0,0,2.375-2.544,18.23,18.23,0,0,0,2.05-9.679c-.073-3.341-.6-6.658-.664-10a8.736,8.736,0,0,1,1.158-5.244,17.072,17.072,0,0,1,2.888-2.672c3.693-3.267,4.956-8.512,5.08-13.44s-.686-9.866-.27-14.776c.16-1.927.879-4.233,2.773-4.608a9.763,9.763,0,0,0,1.8-.229c1.519-.581,1.373-2.723,1.8-4.288.49-1.762,1.991-3.121,2.412-4.9.993-4.169-4.315-9.152-7.779-10.6C254.527,335.5,249.132,335.86,245.416,336.318Z" transform="translate(4182.115 -164.876)" opacity="0.1"/><path d="M244.675,334.819c-2.1.256-4.489.975-5.244,2.942a21.047,21.047,0,0,0-.458,2.288c-.783,3.011-4.173,4.411-6.265,6.718-1.83,2.027-2.659,4.778-3.258,7.459a70.166,70.166,0,0,0-1.208,23.416c.673,5.716,2.046,11.344,2.43,17.083s-.316,11.784-3.455,16.607c-1.373,2.078-3.13,3.9-4.087,6.182,1.977,1.606,4.7,1.83,7.249,1.917q4.448.151,8.9,0a9.435,9.435,0,0,0,4.521-.943,6.923,6.923,0,0,0,2.37-2.544,18.233,18.233,0,0,0,2.055-9.679c-.069-3.341-.6-6.658-.664-10a8.745,8.745,0,0,1,1.153-5.24,16.908,16.908,0,0,1,2.892-2.672c3.688-3.272,4.956-8.516,5.08-13.445s-.691-9.866-.275-14.776c.165-1.922.883-4.233,2.773-4.6a9.4,9.4,0,0,0,1.8-.233c1.519-.581,1.373-2.718,1.8-4.288.485-1.762,1.986-3.116,2.412-4.892.993-4.173-4.315-9.152-7.779-10.6C253.8,334,248.409,334.357,244.675,334.819Z" transform="translate(4182.495 -164.064)" fill="#35323e"/></g></svg>