<svg xmlns="http://www.w3.org/2000/svg" xmlns:xlink="http://www.w3.org/1999/xlink" width="483.669" height="380.658" viewBox="0 0 483.669 380.658"><defs><linearGradient id="a" x1="-4.28" y1="0.935" x2="-4.28" y2="-0.076" gradientUnits="objectBoundingBox"><stop offset="0" stop-color="gray" stop-opacity="0.251"/><stop offset="0.54" stop-color="gray" stop-opacity="0.122"/><stop offset="1" stop-color="gray" stop-opacity="0.102"/></linearGradient></defs><g transform="translate(-3277.233 -333.862)"><path d="M719.289,152.43V472.065c0,9.5-9.323,17.264-20.835,17.264h-441c-11.511,0-20.835-7.732-20.835-17.264V152.43c0-9.52,9.323-19.23,20.835-19.23l440.975,1.054C709.941,134.254,719.289,142.942,719.289,152.43Z" transform="translate(3041.113 201.162)" fill="#fff" stroke="#3f3d56" stroke-width="1" opacity="0.668"/><path d="M719.289,152.856V167.9H236.62V152.856A19.656,19.656,0,0,1,256.295,133.2H699.639a19.656,19.656,0,0,1,19.65,19.656Z" transform="translate(3041.113 201.162)" fill="#3f3d56"/><circle cx="6.947" cy="6.947" r="6.947" transform="translate(3294.173 344.764)" fill="#fa5959" opacity="0.8"/><circle cx="6.947" cy="6.947" r="6.947" transform="translate(3314.38 344.764)" fill="#fed253" opacity="0.8"/><circle cx="6.947" cy="6.947" r="6.947" transform="translate(3334.588 344.764)" fill="#8ccf4d" opacity="0.8"/><g transform="translate(3460.599 451.25)" opacity="0.2"><path d="M629.675,321.743v35.111c0,1.047-1.962,1.881-4.389,1.881H532.669c-2.42,0-4.389-.846-4.389-1.881V321.743c0-1.047,1.956-2.113,4.389-2.113h92.618C627.719,319.624,629.675,320.69,629.675,321.743Z" transform="translate(-528.28 -319.63)" fill="#4285f4"/></g><rect width="48.252" height="1.705" transform="translate(3505.108 463.784)" fill="#4285f4"/><path d="M553.526,333.66a11.442,11.442,0,0,0-6.307,20.985v-.759a2.6,2.6,0,0,1,2.288-2.577,4.539,4.539,0,0,0,7.963,0,2.6,2.6,0,0,1,2.288,2.577v.809a11.442,11.442,0,0,0-6.232-21.035Zm4.489,14.508a4.533,4.533,0,0,1-9.047,0,4.966,4.966,0,0,1,2.6-6.652,1.542,1.542,0,0,1-.245-.821,1.511,1.511,0,0,1,1.517-1.511h.107a1.511,1.511,0,0,0-1.4,1.5,1.529,1.529,0,0,0,.2.752h.044a1.631,1.631,0,0,1,0-.3,1.473,1.473,0,0,1,.288-.878,1.5,1.5,0,0,1,1.442-1.066h.107a1.5,1.5,0,0,0-1.154.677,1.468,1.468,0,0,1,.834-.251,1.6,1.6,0,0,1,1.511,1.68,4.972,4.972,0,0,1,3.687,4.8A5.06,5.06,0,0,1,558.015,348.168Z" transform="translate(2927.168 126.387)" fill="#4285f4" opacity="0.2"/><rect width="48.252" height="1.705" transform="translate(3505.108 467.934)" fill="#4285f4" opacity="0.2"/><rect width="48.252" height="1.705" transform="translate(3505.108 472.085)" fill="#4285f4" opacity="0.2"/><rect width="48.252" height="1.705" transform="translate(3505.108 476.242)" fill="#4285f4" opacity="0.2"/><g transform="translate(3351.874 520.011)" opacity="0.2"><path d="M456.265,431.413v35.111c0,1.041-1.956,1.881-4.389,1.881H359.259c-2.42,0-4.389-.853-4.389-1.881V431.413c0-1.047,1.956-2.113,4.389-2.113h92.63C454.309,429.3,456.265,430.366,456.265,431.413Z" transform="translate(-354.87 -429.3)" fill="#4285f4"/></g><rect width="48.252" height="1.705" transform="translate(3396.377 532.551)" fill="#4285f4"/><path d="M380.11,443.33a11.442,11.442,0,0,0-6.307,20.991v-.765a2.6,2.6,0,0,1,2.288-2.571,4.539,4.539,0,0,0,7.963,0,2.6,2.6,0,0,1,2.288,2.571v.815a11.442,11.442,0,0,0-6.232-21.042Zm4.483,14.508a4.533,4.533,0,0,1-9.047,0,4.985,4.985,0,0,1,2.6-6.653,1.5,1.5,0,0,1-.239-.815,1.517,1.517,0,0,1,1.511-1.517h.113a1.511,1.511,0,0,0-1.21,2.257h.05a1.519,1.519,0,0,1,0-.295,2.219,2.219,0,0,1,1.73-1.95h.056a1.517,1.517,0,0,0-1.154.677,1.5,1.5,0,0,1,.828-.251,1.517,1.517,0,0,1,1.517,1.517,1.55,1.55,0,0,1,0,.169,4.966,4.966,0,0,1,3.235,6.9Z" transform="translate(2991.859 85.478)" fill="#4285f4" opacity="0.2"/><rect width="48.252" height="1.705" transform="translate(3396.377 536.702)" fill="#4285f4" opacity="0.2"/><rect width="48.252" height="1.705" transform="translate(3396.377 540.852)" fill="#4285f4" opacity="0.2"/><rect width="48.252" height="1.705" transform="translate(3396.377 545.003)" fill="#4285f4" opacity="0.2"/><g transform="translate(3326.876 408.666)" opacity="0.2"><path d="M416.383,253.823v35.111c0,1.041-1.956,1.881-4.389,1.881H319.389c-2.414,0-4.389-.853-4.389-1.881V253.823c0-1.047,1.962-2.113,4.389-2.113h92.618C414.427,251.71,416.383,252.776,416.383,253.823Z" transform="translate(-315 -251.71)" fill="#4285f4"/></g><rect width="48.252" height="1.705" transform="translate(3371.367 421.205)" fill="#4285f4"/><rect width="48.252" height="1.705" transform="translate(3371.367 425.356)" fill="#4285f4" opacity="0.2"/><rect width="48.252" height="1.705" transform="translate(3371.367 429.507)" fill="#4285f4" opacity="0.2"/><rect width="48.252" height="1.705" transform="translate(3371.367 433.657)" fill="#4285f4" opacity="0.2"/><path d="M340.221,265.74a11.449,11.449,0,0,0-6.27,20.991v-1.937a2.6,2.6,0,0,1,2.288-2.577,4.539,4.539,0,0,0,7.963,0,2.6,2.6,0,0,1,2.289,2.577v1.981a11.442,11.442,0,0,0-6.27-21.035Zm5.016,13.969a.771.771,0,0,1-.15.194.627.627,0,0,1-.332.113h-.232a4.546,4.546,0,0,1-8.9-1.292,4.478,4.478,0,0,1,.6-2.233l-.051-.031a1.511,1.511,0,0,1,.15-2.1,3.022,3.022,0,0,1,.94-.345,4.2,4.2,0,0,0,2.383-1.824,5.011,5.011,0,0,1,0,.69,1.009,1.009,0,0,1,1.436-.05,2.885,2.885,0,0,0,.408.464,1.254,1.254,0,0,0,.508.144l1.141.144a2.182,2.182,0,0,1,1.3.47,2.057,2.057,0,0,1,.433.765,11.436,11.436,0,0,1,.746,2.414,3.868,3.868,0,0,1-.345,2.464Z" transform="translate(3006.719 151.722)" fill="#4285f4" opacity="0.2"/><g transform="translate(3485.904 574.771)" opacity="0.2"><path d="M670.042,518.746v35.111c0,1.047-1.956,1.881-4.389,1.881H573.029c-2.42,0-4.389-.846-4.389-1.881V518.746c0-1.047,1.956-2.107,4.389-2.107h92.637C668.086,516.608,670.042,517.668,670.042,518.746Z" transform="translate(-568.64 -516.639)" fill="#4285f4"/></g><rect width="48.252" height="1.705" transform="translate(3530.413 587.274)" fill="#4285f4"/><rect width="48.252" height="1.705" transform="translate(3530.413 591.425)" fill="#4285f4" opacity="0.2"/><rect width="48.252" height="1.705" transform="translate(3530.413 595.582)" fill="#4285f4" opacity="0.2"/><rect width="48.252" height="1.705" transform="translate(3530.413 599.732)" fill="#4285f4" opacity="0.2"/><path d="M593.886,530.62a11.442,11.442,0,0,0-6.307,20.985v-1.937a2.6,2.6,0,0,1,2.289-2.571,4.539,4.539,0,0,0,7.963,0,2.6,2.6,0,0,1,2.289,2.571v1.988a11.442,11.442,0,0,0-6.232-21.035Zm5.016,13.963a.7.7,0,0,1-.15.2.627.627,0,0,1-.332.113h-.238a4.539,4.539,0,1,1-8.3-3.524h-.05a1.511,1.511,0,0,1,.15-2.1,3.019,3.019,0,0,1,.94-.345,4.2,4.2,0,0,0,2.383-1.818,5.021,5.021,0,0,1,0,.69,1.009,1.009,0,0,1,1.436-.05,2.6,2.6,0,0,0,.408.458,1.2,1.2,0,0,0,.508.15l1.141.144a2.144,2.144,0,0,1,1.3.47,2.055,2.055,0,0,1,.433.765,11.318,11.318,0,0,1,.746,2.414,3.849,3.849,0,0,1-.357,2.433Z" transform="translate(2912.113 52.917)" fill="#4285f4" opacity="0.2"/><path d="M854.42,268.083v35.111c0,1.047-1.956,1.881-4.389,1.881H757.389c-2.42,0-4.389-.846-4.389-1.881V268.083c0-1.047,1.956-2.113,4.389-2.113h92.655C852.464,265.989,854.42,267.036,854.42,268.083Z" transform="translate(2848.494 151.637)" fill="#fff"/><g transform="translate(3590.66 423.996)" opacity="0.1"><path d="M837.122,278.273v35.111c0,1.041-1.963,1.881-4.389,1.881H740.109c-2.42,0-4.389-.853-4.389-1.881V278.273c0-1.047,1.956-2.113,4.389-2.113h92.637C835.159,276.16,837.122,277.226,837.122,278.273Z" transform="translate(-735.72 -276.16)" fill="#4285f4"/></g><path d="M854.42,268.083v35.111c0,1.047-1.956,1.881-4.389,1.881H757.389c-2.42,0-4.389-.846-4.389-1.881V268.083c0-1.047,1.956-2.113,4.389-2.113h92.655C852.464,265.989,854.42,267.036,854.42,268.083Z" transform="translate(2848.494 151.637)" fill="#fff"/><g transform="translate(3601.494 417.607)" opacity="0.2"><path d="M854.42,268.083v35.111c0,1.047-1.956,1.881-4.389,1.881H757.389c-2.42,0-4.389-.846-4.389-1.881V268.083c0-1.047,1.956-2.113,4.389-2.113h92.655C852.464,265.989,854.42,267.036,854.42,268.083Z" transform="translate(-753 -265.97)" fill="#4285f4"/></g><rect width="48.252" height="1.705" transform="translate(3646.022 430.146)" fill="#4285f4"/><rect width="48.252" height="1.705" transform="translate(3646.022 434.297)" fill="#4285f4" opacity="0.2"/><rect width="48.252" height="1.705" transform="translate(3646.022 438.447)" fill="#4285f4" opacity="0.2"/><rect width="48.252" height="1.705" transform="translate(3646.022 442.598)" fill="#4285f4" opacity="0.2"/><path d="M778.269,280a11.442,11.442,0,0,0-6.326,20.991v-1.937a2.608,2.608,0,0,1,2.288-2.577,4.539,4.539,0,0,0,7.963,0,2.608,2.608,0,0,1,2.289,2.577v1.988A11.442,11.442,0,0,0,778.269,280Zm5.016,13.963a.5.5,0,0,1-.483.307,1.435,1.435,0,0,1-.232,0,4.539,4.539,0,0,1-8.891-1.292,4.49,4.49,0,0,1,.589-2.232l-.05-.031a1.517,1.517,0,0,1,.15-2.1,3.077,3.077,0,0,1,.94-.345,4.169,4.169,0,0,0,2.383-1.818,4.251,4.251,0,0,1,0,.69,1.009,1.009,0,0,1,1.436-.05c.144.144.238.345.414.458a1.084,1.084,0,0,0,.508.144l1.135.15a1.605,1.605,0,0,1,1.73,1.254,10.978,10.978,0,0,1,.746,2.414,3.812,3.812,0,0,1-.364,2.458Z" transform="translate(2843.345 146.403)" fill="#4285f4" opacity="0.2"/><path d="M877.973,568.867c-.865-3.135-1.43-5.881-1.43-5.881a12.224,12.224,0,0,0-1.605-5.963l-.031-.859h0l-.251-6.37a21.463,21.463,0,0,1,1.48-3.386c1.066-2.038-.357-9.311-.357-9.311s-4.64-10.151-3.856-16.728-9.825-28.709-9.825-28.709a28.845,28.845,0,0,1,.671-6.445,5.129,5.129,0,0,0,.069-1.354,1.424,1.424,0,0,0,0-.163v.05c-.313-4.307-4.031-12.257-4.031-12.257l-.138-15.43s1.831-9.173-2.194-21.23c-1.4-4.207-2.326-7.586-2.928-10.195-.069-.295-.138-.577-.194-.853,7.267-1.392,12.809-2.508,12.809-2.508s-4.916-17.555-7.9-20.565-5.643-12.659-5.643-12.659-1.969-12.471.295-16.22,2.351-10.132,2.351-10.132,5.342-4.207,5.963-6.006a29.313,29.313,0,0,0,1.53-7.938c-.081-2.1-.84-3.969-.627-5.085s-1.812-5.26-.972-7.292a5.407,5.407,0,0,0,.295-1.937v-.082a27.043,27.043,0,0,0-.683-5.179,14.759,14.759,0,0,0-5.555-2.7l-.138-.47-.357-1.254c-.188-.113-.37-.213-.552-.3V323l-.119-1.8.7-4.082c1.423-7.1-8.013-7.793-8.013-7.793a4.9,4.9,0,0,0-2.746-2.226c-1.919-.627.088,10.6,1,11.286.683.514,2.872,3.963,3.925,5.643h0l.176.276a4.274,4.274,0,0,0-.414.47l.451,2.426.069.376a9.828,9.828,0,0,0-1.4,2.608,5.459,5.459,0,0,1,1.524,3.937,12.087,12.087,0,0,0,.759,4.853c-.107-.113-1.367-1.373-2.558-1s-4.533,1.5-4.533,1.5-2.508.539-2.251,1.085-1.6,3.06-1.6,3.06l-7.022-6.157c-.075-.188-.15-.376-.219-.571a16.07,16.07,0,0,1-.7-2.79,15.249,15.249,0,0,0,2.138-.771,4.683,4.683,0,0,0,1.831-1.254,7.677,7.677,0,0,0,.978-2.959,41.167,41.167,0,0,1,2.295-5.7,18.226,18.226,0,0,0,.922-10.069,6.684,6.684,0,0,0-1.154-2.9c-1.166-1.48-3.191-2.025-4.7-3.179s-2.508-2.972-4.251-3.818a7.91,7.91,0,0,0-5.154-.245,27.5,27.5,0,0,0-9.467,3.856,4.851,4.851,0,0,1-3.135,1.179,4.273,4.273,0,0,1-2.376-1.611.526.526,0,0,1,0-.094l-.082-.082a11.97,11.97,0,0,0-.853,5.1,3.518,3.518,0,0,0,.063.809v.282a1.515,1.515,0,0,1,0,.238h0a1.433,1.433,0,0,1-.038.364,2.608,2.608,0,0,1-.627.934,5.642,5.642,0,0,0-.527.777.959.959,0,0,1,.082-.282,3.962,3.962,0,0,0-.627,2.163,2.132,2.132,0,0,0,.564,1.511,7.369,7.369,0,0,0,1.141.846,12.241,12.241,0,0,0-.119,2.257,13.11,13.11,0,0,0,6.809,10.928c.088.188.169.376.257.571a16.227,16.227,0,0,1,1.511,7.336,3.835,3.835,0,0,1-.063.539c-.025.176-.163.194-.232.295h0s-11.179.539-13.9-1.743-6.42,6.075-6.42,6.075-3.975.934-4.809.188-5.5.1-5.5.1a10.082,10.082,0,0,0-7.079-2.282,20.748,20.748,0,0,0-5.242-2.652h0l-.132-.038h0a5.756,5.756,0,0,0-2.508-.226s-5.674-4.332-7.373-6.709-9.681-11.129-9.718-11.173l-.044-.433-.138-1.317a4.729,4.729,0,0,1-.683.088l-.169-.451a24.14,24.14,0,0,0-1.768-3.662s-.063-1.668.408-2.1-.451-6.508-.451-6.508-5.4-11.392-9.505-2.571c0,0-8.151,5.919-.884,12.157,0,0,2.865,1.254,3.3,2.32.288.69,1.317,2.608,2.006,3.881.113.213.219.4.307.571l-.075.069.144,1.085.056.42c-1.292.8-2.163,1.586-1.925,2.144a12.122,12.122,0,0,1,.915,2.959s10.207,11.819,11.668,16.985c0,0,26.709,14.515,35.343,15.292l-1.129,7.8a61.843,61.843,0,0,0-.1,6.332c.176,1.662-.677,9.242-.677,9.242s-1.066,11.141-2.263,12.747-.721,8.239-.721,8.239a56.018,56.018,0,0,1-1.354,9.493,24.212,24.212,0,0,0,0,9.436s-3.969,10.145,6.195,2.978c0,0,5.1-.514,10.985-.94v.589c0,.759.038,1.58.063,2.445.138,5.718.408,13.593.9,19.543.872,10.514,4.878,31.2,4.878,31.2l.4,10.471a14.389,14.389,0,0,0-.182,3,19.436,19.436,0,0,0,3.2,10.4l1.072,6.947s2.057,4.533,2.2,7.279a3.768,3.768,0,0,1-.056.671,4.64,4.64,0,0,0-.05,1.072c0,3.172,2.22,10.69,2.22,10.69s.408,7.643,1.567,8.044c1,.339-1.135,4.458-1.774,5.643a2.251,2.251,0,0,1-.05-.219c-.082.157-.132.238-.132.238a5.449,5.449,0,0,0-.282,1.95,2.771,2.771,0,0,0,1.373,2.64c2.226,1.254,3.436,2.307,1.611,2.821a19.448,19.448,0,0,0-2.006.508c0-.088-.075-.176-.107-.257a1.254,1.254,0,0,0-.7,1.367,5.769,5.769,0,0,0,.784,2.571,27.852,27.852,0,0,0,3.323,5.536l.872-.132a4.565,4.565,0,0,1-.47.965,3.718,3.718,0,0,1-1.254,1.2,3.959,3.959,0,0,1-1.542.627,4.389,4.389,0,0,0-3.185,1.705c-1.085,1.517-1.724,3.561.627,5.242l8.3,2.508s14.157,1.292,13.286-1.843-1.43-5.881-1.43-5.881a12.54,12.54,0,0,0-1.361-5.561,6.893,6.893,0,0,0-.527-.809l.5-.075s.759-7.022,2.082-8.408c.307-.313.37-.552.288-.734.125-.389-.238-.627-.708-.7a1,1,0,0,1-.088.276,7.026,7.026,0,0,0-1.373-.1s-.627-3.636.84-5.016a1.4,1.4,0,0,0,.245-1.1,5.943,5.943,0,0,0-.213-1.48.384.384,0,0,0-.044.088,54.383,54.383,0,0,0-3.624-8.471s-.238-3.323.627-4.684-.815-18.07-.815-18.07.038-8.107-1.141-11.831.947-8.251.947-8.251a1.171,1.171,0,0,0-.038-.245v-.056s-.069-.5-.182-1.254a.409.409,0,0,1,0,.082c-.307-2.132-.9-5.994-1.254-7.781-.558-2.508-.451-14.747-.451-14.747l1.881-5.292,4.013,8.84,4.357,11.825a10.217,10.217,0,0,1,2.169,5.016v.376a6.9,6.9,0,0,0,0,.8,7.135,7.135,0,0,0,1.348,4.213s1.254,5.643,2.909,7,1.768,4.151,1.768,4.151,2.263,8.151,3.235,9.536c.815,1.185.984,4.521,1.016,5.543h0v.3s.389,2.922.47,5.386v.815a8.914,8.914,0,0,1-.163,2v-.295a21.077,21.077,0,0,0-.389,5.129c.063,2.953.627,6.427,2.508,8.408,3.229,3.43,5.16,2.909,5.16,2.909s-1.317,4.489-3.135,5.448a1.324,1.324,0,0,0-.194.132,1.77,1.77,0,0,0-.05-.251,2.144,2.144,0,0,0-.477,1.668,11.966,11.966,0,0,0,2.508,6.489,3.648,3.648,0,0,0,1.58.84,3.073,3.073,0,0,1-.276.194,5.93,5.93,0,0,1-.627.32,3.07,3.07,0,0,1-.928.276,4.42,4.42,0,0,0-3.185,1.705c-1.078,1.517-1.724,3.555.627,5.242l8.3,2.508S878.87,572,877.973,568.867Z" transform="translate(2854.291 138.06)" fill="url(#a)"/><path d="M870.379,729.673l-8.038-2.508c-2.251-1.687-1.63-3.731-.583-5.248a4.232,4.232,0,0,1,3.078-1.7,3.762,3.762,0,0,0,1.492-.627,3.511,3.511,0,0,0,1.21-1.2,5.868,5.868,0,0,0,.79-3.1s8.6-2.884,11.085-.426a6.7,6.7,0,0,1,1.116,1.5,12.948,12.948,0,0,1,1.323,5.568s.552,2.746,1.392,5.881S870.379,729.673,870.379,729.673Z" transform="translate(2808.278 -15.441)" fill="#2d293d"/><path d="M932.019,721.085l-8.032-2.508c-2.257-1.68-1.636-3.724-.589-5.235a4.188,4.188,0,0,1,3.078-1.7,3.135,3.135,0,0,0,.9-.282,5.182,5.182,0,0,0,.627-.32c2.176-1.3,2-4.295,2-4.295s8.608-2.884,11.085-.426a6.133,6.133,0,0,1,.878,1.1,12.562,12.562,0,0,1,1.561,5.969s.552,2.759,1.392,5.887S932.019,721.085,932.019,721.085Z" transform="translate(2785.285 -12.252)" fill="#2d293d"/><path d="M883.415,714.909a6.7,6.7,0,0,1,1.116,1.5h0l-12.991,2.013a5.869,5.869,0,0,0,.79-3.1S880.932,712.451,883.415,714.909Z" transform="translate(2804.276 -15.456)" opacity="0.1"/><path d="M944.859,707.4l.094,2.445c-1.881,3.423-11.737,3.066-14.653,1.5a5.176,5.176,0,0,0,.627-.32c2.176-1.3,2-4.295,2-4.295s8.608-2.884,11.085-.426A6.134,6.134,0,0,1,944.859,707.4Z" transform="translate(2782.358 -12.245)" opacity="0.1"/><path d="M913.191,615.064a21.5,21.5,0,0,0-1.423,3.386l.332,8.778c-2.075,3.762-13.649,2.972-15.28,1.035s-3.492-7.079-1.749-8.038,3.01-5.442,3.01-5.442-1.881.514-5.016-2.915S890.52,600.53,891,598.624s-.32-8.207-.32-8.207-.056-4.439-1-5.844-3.135-9.536-3.135-9.536-.107-2.771-1.712-4.157-2.821-7-2.821-7a7.273,7.273,0,0,1-1.292-4.721c.226-2.784-2.107-5.693-2.107-5.693l-4.232-11.825-3.894-8.847-1.787,5.3s-.088,12.214.458,14.747,1.467,9.267,1.467,9.267-2.05,4.521-.9,8.251,1.122,11.837,1.122,11.837,1.636,16.7.8,18.063-.627,4.683-.627,4.683,4.922,9.58,3.53,10.966-.809,5.016-.809,5.016,3.135-.119,1.831,1.254-2.013,8.408-2.013,8.408l-13.342,2.069A27.8,27.8,0,0,1,857,627.114c-1.931-4.038.194-3.668,1.962-4.182s.627-1.574-1.561-2.828-1.053-4.289-1.053-4.289,3-5.555,1.881-5.956-1.53-8.044-1.53-8.044-2.564-9-2.107-11.467S852.5,582.1,852.5,582.1l-1.041-6.953a19.21,19.21,0,0,1-2.947-13.1l-.389-10.79s-3.906-20.69-4.753-31.236c-.545-6.734-.821-15.938-.947-21.687-.069-3.223-.094-5.361-.094-5.361l47.694-6.828a39.826,39.826,0,0,0,1.141,7.079c.589,2.608,1.486,5.988,2.853,10.195,3.906,12.063,2.151,21.236,2.151,21.236l.151,15.424s4.608,10.145,3.856,13.731a29.811,29.811,0,0,0-.627,6.464s10.289,22.139,9.543,28.716,3.762,16.734,3.762,16.734S914.226,613.026,913.191,615.064Z" transform="translate(2815.172 69.505)" fill="#65617d"/><path d="M908.13,599.828l14.5-2.508S914.7,606.073,908.13,599.828Z" transform="translate(2790.628 28.037)" opacity="0.05"/><path d="M925.579,574.74s.7,5.135-2.389,7.2C923.209,581.938,928.833,580.834,925.579,574.74Z" transform="translate(2785.01 36.46)" opacity="0.1"/><path d="M914.522,548.63s-11.8,10.5-16.3,9.844S914.522,548.63,914.522,548.63Z" transform="translate(2794.562 46.199)" opacity="0.1"/><path d="M874.063,610s-9.173,2.458-9.3,6.182S874.063,610,874.063,610Z" transform="translate(2806.806 23.307)" opacity="0.1"/><path d="M879.8,683.55s-12.972,2.941-9.21,4.458a63.456,63.456,0,0,0,9.925,2.621S884.737,690.685,879.8,683.55Z" transform="translate(2804.885 -4.128)" opacity="0.05"/><g transform="translate(3657.483 562.157)" opacity="0.05"><path d="M866.011,693.9a2.6,2.6,0,0,1-1.254-1.85c-.075.151-.125.238-.125.238s-1.1,3.035,1.053,4.289c.251.144.483.282.7.42.389-.088.8-.157,1.2-.276C869.309,696.238,868.137,695.154,866.011,693.9Z" transform="translate(-850.525 -569.456)"/><path d="M893.408,691.232c.345-.345.3-1.2.038-2.282a6.157,6.157,0,0,0-.627,3.235A2.572,2.572,0,0,1,893.408,691.232Z" transform="translate(-861.137 -568.3)"/><path d="M886.737,604.75a15.046,15.046,0,0,0-.727,4.113,16,16,0,0,1,.909-2.84S886.85,605.534,886.737,604.75Z" transform="translate(-858.605 -536.892)"/><path d="M934.461,592.906a4.937,4.937,0,0,0,.075-1.216c-.132.834-.219,1.605-.276,2.282C934.323,593.627,934.385,593.27,934.461,592.906Z" transform="translate(-876.603 -532.02)"/><path d="M888.92,666.15a7.049,7.049,0,0,0,.232-2.47,8.345,8.345,0,0,0-.514,3.135A3.015,3.015,0,0,1,888.92,666.15Z" transform="translate(-859.584 -558.874)"/><path d="M883.491,700.8a43.626,43.626,0,0,0-1.254,6.9L868.9,709.766a28.092,28.092,0,0,1-3.216-5.536c-.169-.357-.307-.677-.42-.965-.79.4-1.072,1.254.075,3.643a27.838,27.838,0,0,0,3.223,5.536l13.342-2.069s.727-7.022,2.006-8.4C884.526,701.264,884.093,700.925,883.491,700.8Z" transform="translate(-850.606 -572.72)"/><path d="M856.708,605.37s.408,7.649,1.53,8.05h0c.514-1.285.84-2.508.339-2.677-1.129-.4-1.53-8.05-1.53-8.05s-2.571-9-2.107-11.461-2.094-8.245-2.094-8.245l-1.047-6.953a19.21,19.21,0,0,1-2.947-13.1l-.414-10.753s-3.906-20.69-4.752-31.236c-.546-6.734-.821-15.944-.947-21.687,0-1.041-.038-1.962-.056-2.74l-.382.056s0,2.132.1,5.361c.125,5.743.4,14.954.941,21.687.853,10.515,4.759,31.236,4.759,31.236l.414,10.753a19.211,19.211,0,0,0,2.947,13.1l1.041,6.953s2.558,5.781,2.094,8.245S856.708,605.37,856.708,605.37Z" transform="translate(-842.3 -496.52)"/><path d="M928.112,704.919a12.966,12.966,0,0,1-2.32-5.179c-1.323,1.254.433,6.019,1.981,7.856,1.63,1.937,13.2,2.715,15.279-1.028l-.081-2.113C940.094,707.552,929.655,706.762,928.112,704.919Z" transform="translate(-873.27 -572.325)"/><path d="M955.033,686.948a21.514,21.514,0,0,0-1.423,3.386l.056,1.555c.232-.577.564-1.348,1.028-2.263a6.73,6.73,0,0,0,.376-2.765Z" transform="translate(-883.821 -567.52)"/><path d="M926.148,681.177a20.933,20.933,0,0,0,.991-2.677s-1.881.514-5.016-2.915c-2.276-2.508-2.589-7.367-2.4-10.565-.483,1.881-1.066,9.812,2.063,13.242C923.847,680.506,925.351,681.058,926.148,681.177Z" transform="translate(-871.036 -559.374)"/><path d="M906.586,616.067a60.2,60.2,0,0,1,.477,6.558,8.083,8.083,0,0,1,.188-1.035c.483-1.881-.32-8.2-.32-8.2s-.063-4.439-1-5.85S902.793,598,902.793,598s-.107-2.771-1.718-4.151-2.821-7-2.821-7a7.3,7.3,0,0,1-1.292-4.727c.226-2.784-2.107-5.687-2.107-5.687l-4.238-11.831-3.894-8.84-1.793,5.285v1.687l1.461-4.295,3.894,8.84,4.226,11.825s2.332,2.9,2.107,5.687a7.261,7.261,0,0,0,1.292,4.727s1.21,5.643,2.821,7,1.712,4.151,1.712,4.151,2.2,8.151,3.135,9.536S906.586,616.067,906.586,616.067Z" transform="translate(-858.202 -518.621)"/></g><path d="M915.134,320.088l-.677,4.082.119,1.8.088,1.329-4.608.627-.558-.94h0c-1.022-1.7-3.135-5.154-3.812-5.643-.878-.683-2.84-11.881-.984-11.286a4.859,4.859,0,0,1,2.671,2.232S916.513,312.991,915.134,320.088Z" transform="translate(2792.195 135.2)" fill="#ffcdd3"/><path d="M917.976,336.484l-4.608.627-.558-.94h0a4.088,4.088,0,0,1,5.079-1.041Z" transform="translate(2788.882 126.014)" opacity="0.1"/><path d="M919.046,338.907,913,340.556l-.163-.9-.439-2.433a4.2,4.2,0,0,1,5.875-1.028l.351,1.254Z" transform="translate(2789.035 125.742)" fill="#dce6f2"/><path d="M755.934,321.426l-6.376,3.762s-.27-.5-.627-1.2c-.671-1.254-1.668-3.2-1.95-3.887-.426-1.06-3.2-2.32-3.2-2.32-7.066-6.27.84-12.157.84-12.157,3.963-8.815,9.2,2.583,9.2,2.583s.9,6.075.445,6.508-.389,2.094-.389,2.094a24.633,24.633,0,0,1,1.712,3.668C755.815,321.05,755.934,321.426,755.934,321.426Z" transform="translate(2853.028 138.094)" fill="#ffcdd3"/><path d="M760.743,332.263l-6.376,3.762s-.27-.5-.627-1.2c.884-.8,4.044-3.574,5.116-3.492a8.267,8.267,0,0,0,1.542,0C760.624,331.887,760.743,332.263,760.743,332.263Z" transform="translate(2848.218 127.257)" opacity="0.1"/><path d="M761.61,334.406l-7.179,3.887-.207-1.567-.144-1.085s4.1-3.793,5.361-3.705a6.784,6.784,0,0,0,1.881-.075l.138,1.31Z" transform="translate(2848.091 127.058)" fill="#dce6f2"/><path d="M879.333,355.437s-31.763,4.828-25.876,2.665c4.1-1.517,5.643-4.22,5.881-7.154a16.752,16.752,0,0,0-1.473-7.342,32.037,32.037,0,0,0-3.072-5.643s23.869-14.352,19.437-1.969a19.394,19.394,0,0,0-1.16,5.831,16.3,16.3,0,0,0,.853,5.825A17.43,17.43,0,0,0,879.333,355.437Z" transform="translate(2811.293 127.395)" fill="#ffcdd3"/><path d="M875.482,336.007a19.4,19.4,0,0,0-1.16,5.831c-2.219,2.019-4.746,1.988-7.981,2.113-2.508.094-5.216.8-7.248-.32a32.035,32.035,0,0,0-3.072-5.643S879.889,323.631,875.482,336.007Z" transform="translate(2810.066 127.388)" opacity="0.1"/><circle cx="13.204" cy="13.204" r="13.204" transform="translate(3662.299 445.808)" fill="#ffcdd3"/><path d="M879.333,364.648s-31.763,4.828-25.876,2.665c4.1-1.517,5.643-4.22,5.881-7.154,1.524-1.787,4.665-3.135,6.69-3.887a9.523,9.523,0,0,1,5.774-.313,8.044,8.044,0,0,1,2.144.89A17.429,17.429,0,0,0,879.333,364.648Z" transform="translate(2811.293 118.184)" opacity="0.1"/><path d="M919.307,340.021l-6.044,1.649-.163-.9a5.4,5.4,0,0,1,5.787-2.232Z" transform="translate(2788.774 124.628)" opacity="0.1"/><path d="M761.7,335.2l-7.179,3.887-.207-1.567A53.144,53.144,0,0,1,761.57,334Z" transform="translate(2848.005 126.26)" opacity="0.1"/><path d="M891.154,493.269c-12.276,2.426-29.763,5.643-32.6,4.9-2.345-.627-9.731-.257-16.157.213-.069-3.223-.094-5.361-.094-5.361l47.694-6.828A39.82,39.82,0,0,0,891.154,493.269Z" transform="translate(2815.184 69.49)" opacity="0.1"/><path d="M869.467,433.368s-40.415,8.546-44.835,7.386-26.778,1.141-26.778,1.141c-9.825,7.148-6-2.991-6-2.991a24.475,24.475,0,0,1,0-9.436,57.966,57.966,0,0,0,1.3-9.486s-.477-6.64.683-8.239S796.01,399,796.01,399s.815-7.58.627-9.242a60.322,60.322,0,0,1,.094-6.326l1.129-7.812c-8.358-.79-34.227-15.336-34.227-15.336-1.423-5.16-11.286-16.991-11.286-16.991a12.731,12.731,0,0,0-.89-2.966c-.734-1.749,9.11-5.68,9.11-5.68s7.775,8.778,9.4,11.185,7.141,6.721,7.141,6.721a5.329,5.329,0,0,1,2.452.219l.125.038h0a19.849,19.849,0,0,1,5.072,2.658,9.631,9.631,0,0,1,6.859,2.288s4.521-.84,5.323-.094,4.658-.176,4.658-.176,3.561-8.358,6.2-6.069,13.461,1.756,13.461,1.756c1.367-1.969,4.821-3.48,6.991-4.27a9.524,9.524,0,0,1,5.774-.32,7.411,7.411,0,0,1,2.326,1.016l6.809,6.176s1.793-2.508,1.549-3.06,2.182-1.078,2.182-1.078,3.172-1.122,4.389-1.5,2.37.9,2.477,1.009a12.829,12.829,0,0,1-.74-4.853,5.724,5.724,0,0,0-1.486-3.937c3.517-9.681,12.577-2.038,12.577-2.038s1.2,5.173.389,7.2,1.129,6.169.947,7.285.558,2.978.627,5.085a30.739,30.739,0,0,1-1.467,7.938c-.6,1.8-5.768,5.994-5.768,5.994s-.088,6.333-2.276,10.082-.263,16.22-.263,16.22,2.6,9.668,5.486,12.665S869.467,433.368,869.467,433.368Z" transform="translate(2849.084 126.018)" fill="#3f3d56"/><path d="M837.194,375.468s-1.36-3.611-2.508-3.9a26.606,26.606,0,0,1-3.267-1.317l.627-1.392s4.207.978,4.922,2.176S837.194,375.468,837.194,375.468Z" transform="translate(2819.242 113.257)" opacity="0.1"/><path d="M798.632,366.26c-.182,1.116-10.032,2.508-10.032,2.508l4.8-5.2h0l.125.038h0a19.85,19.85,0,0,1,5.11,2.652Z" transform="translate(2835.215 115.23)" opacity="0.1"/><circle cx="0.89" cy="0.89" r="0.89" transform="translate(3603.826 466.48)" fill="#575988"/><circle cx="0.89" cy="0.89" r="0.89" transform="translate(3605.03 468.21)" fill="#575988"/><circle cx="0.89" cy="0.89" r="0.89" transform="translate(3606.203 469.803)" fill="#575988"/><circle cx="0.89" cy="0.89" r="0.89" transform="translate(3607.432 471.533)" fill="#575988"/><circle cx="0.721" cy="0.721" r="0.721" transform="translate(3712.094 467.583)" fill="#575988"/><circle cx="0.721" cy="0.721" r="0.721" transform="translate(3712.269 469.213)" fill="#575988"/><circle cx="0.721" cy="0.721" r="0.721" transform="translate(3712.426 470.844)" fill="#575988"/><path d="M842.56,427.31c-.107-.125,26.095,30.471,44.8,11.486C887.351,438.8,856.861,444.132,842.56,427.31Z" transform="translate(2815.087 91.454)" opacity="0.1"/><path d="M820.67,454.359s14.972-.169,16.7,4.069l.169,4.477a2.853,2.853,0,0,1-2.784.107c-1.536-.752-10.753-5.016-13.856-2.665Z" transform="translate(2823.252 81.364)" opacity="0.1"/><path d="M821.12,454.339s14.314-.163,15.969,3.881l.163,4.27a2.746,2.746,0,0,1-2.665.1c-1.467-.721-10.282-4.765-13.248-2.539Z" transform="translate(2823.084 81.372)" fill="#656691"/><path d="M831.7,402.07a48.1,48.1,0,0,0,6.182,9.724,39.017,39.017,0,0,0,9.4,8.414S832.026,404.114,831.7,402.07Z" transform="translate(2819.137 100.869)" opacity="0.1"/><path d="M822.83,374.66s2.909,10.659,9.48,14.082Z" transform="translate(2822.446 111.093)" opacity="0.1"/><path d="M816.7,376.628c-.075-.2-1.881,8.6,8.778,13.016C825.5,389.644,820.981,388.3,816.7,376.628Z" transform="translate(2824.791 110.36)" opacity="0.1"/><path d="M920.488,361.09c-.163,0,5.317,3.2,6.828,4.734C927.316,365.824,923.642,360.745,920.488,361.09Z" transform="translate(2786.019 116.161)" opacity="0.1"/><path d="M859.141,333.4a2.075,2.075,0,0,0,2.351,1.975c4.031.094,8.226.113,11.913-1.58a4.489,4.489,0,0,0,1.762-1.254,7.5,7.5,0,0,0,.947-2.959,43.079,43.079,0,0,1,2.219-5.693,18.853,18.853,0,0,0,.89-10.113,6.734,6.734,0,0,0-1.116-2.9c-1.129-1.486-3.1-2.025-4.552-3.185s-2.439-2.978-4.119-3.825a7.536,7.536,0,0,0-5.016-.251,26.183,26.183,0,0,0-9.154,3.85,4.633,4.633,0,0,1-3.066,1.172,4.273,4.273,0,0,1-2.351-1.661,12.3,12.3,0,0,0-.765,5.787,2.509,2.509,0,0,1,0,.865,2.658,2.658,0,0,1-.583.934c-.947,1.191-1.5,3.041-.47,4.163.445.5,1.11.746,1.549,1.254.777.9.577,2.238.627,3.423a1.736,1.736,0,0,0,.339,1.16,1.711,1.711,0,0,0,1.643.326,4.434,4.434,0,0,1,1.724-.232,2.872,2.872,0,0,1,1.555,1.1C857.43,328.018,858.251,330.588,859.141,333.4Z" transform="translate(2813.252 137.71)" fill="#2d293d"/><g transform="translate(3660.74 444.529)" opacity="0.1"><path d="M875.555,338.443a4.494,4.494,0,0,1-1.768,1.254c-3.662,1.693-7.85,1.68-11.881,1.58a2.075,2.075,0,0,1-2.357-1.969c-.884-2.815-1.712-5.386-3.662-7.674a2.884,2.884,0,0,0-1.549-1.1,4.583,4.583,0,0,0-1.73.232,1.712,1.712,0,0,1-1.643-.326,1.775,1.775,0,0,1-.339-1.16c0-1.185.176-2.508-.627-3.423-.433-.5-1.1-.752-1.549-1.254a2.608,2.608,0,0,1-.357-2.64c-.658,1.147-.909,2.6-.05,3.542.445.489,1.116.74,1.549,1.254.777.9.583,2.238.627,3.43a1.73,1.73,0,0,0,.339,1.154,1.693,1.693,0,0,0,1.643.326,4.565,4.565,0,0,1,1.73-.232,2.916,2.916,0,0,1,1.549,1.1c1.95,2.295,2.771,4.859,3.662,7.674a2.79,2.79,0,0,0,1.1,1.743,2.828,2.828,0,0,0,1.254.232c4.031.094,8.226.107,11.913-1.586a4.545,4.545,0,0,0,1.768-1.254,3.586,3.586,0,0,0,.527-1.091,1.821,1.821,0,0,1-.144.188Z" transform="translate(-847.494 -313.778)"/><path d="M850.069,315.343a1.878,1.878,0,0,0,.376-.683,2.362,2.362,0,0,0,0-.865,12.283,12.283,0,0,1,.439-4.8l-.082-.088a12.311,12.311,0,0,0-.765,5.787,3.732,3.732,0,0,1,.031.646Z" transform="translate(-848.416 -308.91)"/></g><path d="M862.82,363.614s16.565,1.555,17.95-.984" transform="translate(2807.529 115.581)" opacity="0.1"/><path d="M913.5,351.354s9.154-.339,11.286,3.016" transform="translate(2788.625 119.79)" opacity="0.1"/></g></svg>