<svg xmlns="http://www.w3.org/2000/svg" width="432.946" height="344.93" viewBox="0 0 432.946 344.93"><g transform="translate(-2295.395 -51.067)"><rect width="380.953" height="298.886" transform="translate(2347.389 51.067)" fill="#3f3d56"/><path d="M507.893,262.907H413.913a1.141,1.141,0,1,1,0-2.281h93.981a1.141,1.141,0,1,1,0,2.281Z" transform="translate(2025.638 -170.995)" fill="#f2f2f2"/><path d="M658.538,287.673H510.724a1.141,1.141,0,0,1,0-2.281H658.538a1.141,1.141,0,0,1,0,2.281Z" transform="translate(1977.87 -183.215)" fill="#f2f2f2"/><path d="M508.794,312.439H414.813a1.141,1.141,0,0,1,0-2.281h93.981a1.141,1.141,0,1,1,0,2.281Z" transform="translate(2025.193 -195.434)" fill="#f2f2f2"/><path d="M710.972,312.889H616.992a1.141,1.141,0,1,1,0-2.281h93.981a1.141,1.141,0,0,1,0,2.281Z" transform="translate(1925.436 -195.657)" fill="#f2f2f2"/><path d="M509.244,337.2H415.264a1.141,1.141,0,1,1,0-2.281h93.981a1.141,1.141,0,1,1,0,2.281Z" transform="translate(2024.971 -207.654)" fill="#f2f2f2"/><path d="M509.695,361.97H415.714a1.141,1.141,0,0,1,0-2.281h93.981a1.141,1.141,0,0,1,0,2.281Z" transform="translate(2024.749 -219.874)" fill="#f2f2f2"/><path d="M659.218,263.358H632.3a1.141,1.141,0,1,1,0-2.281h26.917a1.141,1.141,0,0,1,0,2.281Z" transform="translate(1917.882 -171.217)" fill="#f2f2f2"/><path d="M659.218,337.2H632.3a1.141,1.141,0,1,1,0-2.281h26.917a1.141,1.141,0,0,1,0,2.281Z" transform="translate(1917.882 -207.654)" fill="#f2f2f2"/><path d="M659.218,361.52H632.3a1.141,1.141,0,1,1,0-2.281h26.917a1.141,1.141,0,0,1,0,2.281Z" transform="translate(1917.882 -219.652)" fill="#f2f2f2"/><path d="M748.375,361.52H721.458a1.141,1.141,0,0,1,0-2.281h26.917a1.141,1.141,0,0,1,0,2.281Z" transform="translate(1873.891 -219.652)" fill="#f2f2f2"/><path d="M440.379,287.673H413.462a1.141,1.141,0,1,1,0-2.281h26.917a1.141,1.141,0,0,1,0,2.281Z" transform="translate(2025.86 -183.215)" fill="#f2f2f2"/><path d="M508.119,627.639H414.138a1.141,1.141,0,1,1,0-2.281h93.981a1.141,1.141,0,1,1,0,2.281Z" transform="translate(2025.527 -350.959)" fill="#f2f2f2"/><path d="M507.218,677.17H413.237a1.141,1.141,0,1,1,0-2.281h93.981a1.141,1.141,0,1,1,0,2.281Z" transform="translate(2025.971 -375.398)" fill="#f2f2f2"/><path d="M507.668,701.936H413.688a1.141,1.141,0,1,1,0-2.281h93.981a1.141,1.141,0,1,1,0,2.281Z" transform="translate(2025.749 -387.618)" fill="#f2f2f2"/><path d="M652.239,677.62H625.322a1.141,1.141,0,0,1,0-2.281h26.917a1.141,1.141,0,0,1,0,2.281Z" transform="translate(1921.325 -375.62)" fill="#f2f2f2"/><path d="M652.239,701.936H625.322a1.141,1.141,0,0,1,0-2.281h26.917a1.141,1.141,0,0,1,0,2.281Z" transform="translate(1921.325 -387.618)" fill="#f2f2f2"/><path d="M741.4,677.62H714.479a1.141,1.141,0,1,1,0-2.281H741.4a1.141,1.141,0,0,1,0,2.281Z" transform="translate(1877.334 -375.62)" fill="#f2f2f2"/><path d="M658.764,652.4H510.949a1.141,1.141,0,0,1,0-2.281H658.764a1.141,1.141,0,0,1,0,2.281Z" transform="translate(1977.759 -363.178)" fill="#f2f2f2"/><path d="M440.6,652.4H413.688a1.141,1.141,0,1,1,0-2.281H440.6a1.141,1.141,0,0,1,0,2.281Z" transform="translate(2025.749 -363.178)" fill="#f2f2f2"/><path d="M658.764,727.152H510.949a1.141,1.141,0,0,1,0-2.281H658.764a1.141,1.141,0,0,1,0,2.281Z" transform="translate(1977.759 -400.06)" fill="#f2f2f2"/><path d="M440.6,727.152H413.688a1.141,1.141,0,1,1,0-2.281H440.6a1.141,1.141,0,0,1,0,2.281Z" transform="translate(2025.749 -400.06)" fill="#f2f2f2"/><path d="M483.512,401.13l-36.5,36.041,36.5,36.041L491.723,465l-27.6-27.6,27.829-27.829Z" transform="translate(2027.437 -228.923)" fill="#536dfe"/><path d="M617.107,401.13l36.5,36.041-36.5,36.041L608.895,465l27.6-27.6L608.667,409.57Z" transform="translate(1947.675 -228.923)" fill="#536dfe"/><circle cx="4.559" cy="4.559" r="4.559" transform="translate(2352.961 54.106)" fill="#d45358"/><circle cx="4.559" cy="4.559" r="4.559" transform="translate(2365.119 54.106)" fill="#d7b453"/><circle cx="4.559" cy="4.559" r="4.559" transform="translate(2377.277 54.106)" fill="#7cb24f"/><rect width="380.953" height="1.52" transform="translate(2347.389 66.264)" opacity="0.1"/><path d="M145.185,770.694a21.847,21.847,0,0,1-4.143,1.774c-2.573.7-5.323.445-7.922,1.045a3.259,3.259,0,0,0-2.56,1.8,3.776,3.776,0,0,0,.28,2.342c2.872,8.419,4.6,17.359,9.182,24.985a37.812,37.812,0,0,0,7.089,8.606,6.758,6.758,0,0,0,3.615,2,3.672,3.672,0,0,0,3.734-5.158c-.411-.912-1.174-1.619-1.666-2.49a9.5,9.5,0,0,1-.922-3.541c-.452-3.6-.888-7.365.359-10.773.837-2.286,2.372-4.235,3.651-6.306s2.341-4.444,2.057-6.861a11.917,11.917,0,0,0-1.849-4.587c-.852-1.43-2.535-5.273-4.247-5.75C150.066,767.286,146.734,769.9,145.185,770.694Z" transform="translate(2164.934 -421.202)" fill="#2f2e41"/><path d="M248.605,821.245a7.1,7.1,0,0,1-.336,2.4c-.536,1.415-1.865,2.384-2.551,3.732-.955,1.875-.522,4.141.111,6.147a6.3,6.3,0,0,0,1.982,3.345,6.532,6.532,0,0,0,3.016.966c9.137,1.265,18.418.539,27.639.8a9.435,9.435,0,0,0,4.927-.714c1.467-.821,2.374-2.886,1.376-4.239-.9-1.215-2.667-1.2-4.175-1.275A17.18,17.18,0,0,1,270,828.051a7.654,7.654,0,0,1-1.486-1.711,10.515,10.515,0,0,1-.777-1.782,79.431,79.431,0,0,0-4.6-10.192A5.4,5.4,0,0,0,261.155,812a5.229,5.229,0,0,0-2.148-.469c-2.3-.149-8.249-.931-10.026.856C247.34,814.036,248.642,819.148,248.605,821.245Z" transform="translate(2108.339 -442.671)" fill="#2f2e41"/><circle cx="14.678" cy="14.678" r="14.678" transform="translate(2356.407 145.163)" fill="#fbbebe"/><path d="M249.317,416.515a11.034,11.034,0,0,1-4.509,5.79l20.3,4.141a21.506,21.506,0,0,1-.285-9.052,5.218,5.218,0,0,0,.121-2.234c-.382-1.473-2.04-2.182-3.523-2.52-3.705-.845-6.982-1.3-10.425-2.934C249.946,411.508,250.093,414.437,249.317,416.515Z" transform="translate(2108.513 -244.553)" fill="#fbbebe"/><path d="M226.563,422.352a15.876,15.876,0,0,1,13.836.362,31.321,31.321,0,0,1,6.875,5.485c1.952,1.883,4.034,4.039,4.172,6.747a18.9,18.9,0,0,1-.549,3.893,13.053,13.053,0,0,0,6.981,13.409c1.613,2.687,1.946,5.942,1.97,9.075.094,11.872-3.652,23.891-.978,35.459.628,2.716,1.6,5.346,2.144,8.081.7,3.542.668,7.183,1.035,10.775a48.263,48.263,0,0,0,2.59,11.4,4.734,4.734,0,0,1-4.378,1.83,12.367,12.367,0,0,1-4.682-1.589c-7.155-3.661-13.708-8.489-21.118-11.6-4.9-2.059-10.125-3.341-14.881-5.718s-9.179-6.151-10.633-11.265a26.368,26.368,0,0,1-.7-6.84c-.145-9.683-.279-19.471,1.829-28.923,1.859-8.335,5.441-16.309,6.223-24.813.254-2.768.26-5.731,1.806-8.041C220.29,426.806,225.01,425.961,226.563,422.352Z" transform="translate(2126.589 -250.096)" fill="#2f2e41"/><path d="M247.874,377.822a3.793,3.793,0,0,1,3.915-.948c1.382.334,2.656,1.046,4.051,1.316a2.368,2.368,0,0,0,1.9-.266,2.758,2.758,0,0,0,.818-1.809,34.529,34.529,0,0,0,.34-8.8,2.607,2.607,0,0,1,.08-1.235c.345-.833,1.4-1.031,2.26-1.3a6.746,6.746,0,0,0,4.566-6.906,2.746,2.746,0,0,0-.839-1.895,3.452,3.452,0,0,0-2.2-.521q-5.918-.048-11.837,0a8.6,8.6,0,0,0-4.26.776,20.7,20.7,0,0,0-2.472,2.083c-2.192,1.769-5.156,2.128-7.822,3.035a7.755,7.755,0,0,0-3.428,2.044,3.612,3.612,0,0,0-.756,3.745,13.3,13.3,0,0,0,.956,1.471c1.573,2.515.526,5.777.761,8.733.293,3.692,5.757,9.682,9.462,10.555C249.35,389.312,245.894,380.246,247.874,377.822Z" transform="translate(2114.863 -217.774)" fill="#2f2e41"/><path d="M244.273,694.113a43.808,43.808,0,0,1,.732,8.12c-.181,3.8-1.55,7.454-1.8,11.246-.189,2.832.248,5.7-.145,8.506-.252,1.8-.839,3.535-1.2,5.316a21.983,21.983,0,0,0,3.532,16.852,2.76,2.76,0,0,0,1.025.993,2.9,2.9,0,0,0,1.27.168,91.156,91.156,0,0,0,12.751-1.159,1.224,1.224,0,0,0,.819-.361,1.148,1.148,0,0,0,.178-.483c.782-4.02-1-8.051-1.455-12.122-.484-4.346.559-8.7,1.594-12.951a57.52,57.52,0,0,1,1.757-6.194c.5-1.366,1.1-2.7,1.538-4.084a31.137,31.137,0,0,0,1.115-6.688q.452-5.357.479-10.739a45.063,45.063,0,0,0-.844-10.137c-.951-4.224-2.9-8.146-4.831-12.021a7.613,7.613,0,0,0-2.846,1.353,63.511,63.511,0,0,1-7.776,4.3c-1.807.839-5.33,1.435-6.477,3.184-1.131,1.725-.4,5.244-.315,7.146Q243.593,689.251,244.273,694.113Z" transform="translate(2110.178 -372.184)" fill="#2f2e41"/><path d="M244.273,694.113a43.808,43.808,0,0,1,.732,8.12c-.181,3.8-1.55,7.454-1.8,11.246-.189,2.832.248,5.7-.145,8.506-.252,1.8-.839,3.535-1.2,5.316a21.983,21.983,0,0,0,3.532,16.852,2.76,2.76,0,0,0,1.025.993,2.9,2.9,0,0,0,1.27.168,91.156,91.156,0,0,0,12.751-1.159,1.224,1.224,0,0,0,.819-.361,1.148,1.148,0,0,0,.178-.483c.782-4.02-1-8.051-1.455-12.122-.484-4.346.559-8.7,1.594-12.951a57.52,57.52,0,0,1,1.757-6.194c.5-1.366,1.1-2.7,1.538-4.084a31.137,31.137,0,0,0,1.115-6.688q.452-5.357.479-10.739a45.063,45.063,0,0,0-.844-10.137c-.951-4.224-2.9-8.146-4.831-12.021a7.613,7.613,0,0,0-2.846,1.353,63.511,63.511,0,0,1-7.776,4.3c-1.807.839-5.33,1.435-6.477,3.184-1.131,1.725-.4,5.244-.315,7.146Q243.593,689.251,244.273,694.113Z" transform="translate(2110.178 -372.184)" opacity="0.1"/><path d="M189.092,605.518c-1.949,5.248.916,10.919,3.405,15.933,6.133,12.354,10.391,25.536,14.627,38.661a4.741,4.741,0,0,1,.281,3.026,3.964,3.964,0,0,1-1.429,1.7c-2.921,2.218-6.64,3.008-10.119,4.169a45.687,45.687,0,0,0-9.6,4.5c-2.521,1.562-4.883,3.366-7.24,5.166l-7.5,5.731a5.019,5.019,0,0,0-1.254,1.214c-.724,1.135-.427,2.618-.067,3.915a66.582,66.582,0,0,0,3.674,10.026A3.5,3.5,0,0,0,175.2,701.3c1.171.629,2.6-.205,3.5-1.189s1.668-2.208,2.929-2.631,2.645.089,3.96-.1c2.127-.3,3.539-2.258,5.072-3.762,6.264-6.146,16.722-5.7,23.613-11.133a30,30,0,0,1,3.157-2.466c1.165-.689,2.486-1.066,3.695-1.675,3.676-1.851,5.987-5.678,7.225-9.6s1.591-8.069,2.481-12.087a52.555,52.555,0,0,0,1.27-6.25,33.481,33.481,0,0,0-.128-5.91l-2.486-30.758c-.2-2.5-.405-5.011-.8-7.493-7.384.264-14.763.561-22.152.648C200.658,606.965,194.671,607.376,189.092,605.518Z" transform="translate(2145.514 -341.169)" fill="#2f2e41"/><path d="M201.811,607.971c1,1.611,3.44,1.578,5.119.694s2.983-2.367,4.666-3.243c2.261-1.177,4.937-1.132,7.485-1.06a48.66,48.66,0,0,1,12,1.341c4.015,1.143,7.923,3.345,12.074,2.906a2.483,2.483,0,0,0,1.905-.894,2.809,2.809,0,0,0,.314-1.437l.136-3.627a3.275,3.275,0,0,0-.289-1.837,3.081,3.081,0,0,0-1.376-1.053c-5.909-2.86-12.647-3.393-19.207-3.618q-5-.171-10.009-.141c-2.832.017-6.233-.393-8.986.364C201.947,597.383,199.936,604.956,201.811,607.971Z" transform="translate(2130.081 -336.427)" fill="#2f2e41"/><path d="M238.112,427.047c-7.742-.069-14.757-5.179-22.5-5.3a5.834,5.834,0,0,0-2.732.471,10.171,10.171,0,0,0-2.607,2.481c-2.289,2.479-5.6,3.8-7.955,6.221a9.227,9.227,0,0,0-2.561,8.69c.87,3.041,4.156,5.374,7.234,4.643a18.643,18.643,0,0,1,7.263-9.868,36.92,36.92,0,0,1,5.676-2.98c3.479-1.576,7.37-3.183,11-2a15.52,15.52,0,0,1,3.753,2.047l6.056,4.068A42.157,42.157,0,0,0,238.112,427.047Z" transform="translate(2130.881 -250.486)" fill="#536dfe"/><path d="M202.061,447.7c-1.028,1.282.453,3.141.226,4.769-.151,1.082-1.041,1.908-1.411,2.935a15.731,15.731,0,0,0-.326,3.364,14.43,14.43,0,0,1-.646,2.4,43.047,43.047,0,0,0-1.361,7.105l-1.355,10.119a38.34,38.34,0,0,0-.429,4.6,13.732,13.732,0,0,1-.229,3.438,25.392,25.392,0,0,1-1.411,3.128,3.666,3.666,0,0,0-.05,3.305,5.777,5.777,0,0,0-1.209,7.211,4,4,0,0,1,.623,1.148,2.948,2.948,0,0,1-.274,1.692l-1.37,3.651c-.351.934-.462,2.357.513,2.57a8.616,8.616,0,0,0-1.85,2.921,3.478,3.478,0,0,0,.493,3.3,4.2,4.2,0,0,1,.858,1.042,2.772,2.772,0,0,1-.1,1.643,6.031,6.031,0,0,0,.746,4.728,4.241,4.241,0,0,0,4.265,1.828c2.741-.618,5.2-1.594,7.967-1.087a142.335,142.335,0,0,1,17.683,4.028c6.578,2.1,12.946,5.18,19.821,5.826a1.923,1.923,0,0,0,1.326-.206,1.991,1.991,0,0,0,.613-1.26l2.125-9.962a102.519,102.519,0,0,0,1.953-11.159c.242-2.422.311-4.858.38-7.291l.548-19.367a19.35,19.35,0,0,0-1.115-8.419l-3.15-10.055c-1.8-5.738-5.921-10.826-7.389-16.657-.929-3.69-1.616-7.651-4.107-10.527-3.552-4.1-9.7-4.739-15.078-4.034a18.013,18.013,0,0,0-6.983,2.129c-2.431,1.457-4.221,3.753-5.954,6C204.975,444.388,203.522,445.874,202.061,447.7Z" transform="translate(2134.921 -256.622)" fill="#536dfe"/><path d="M236.858,561.087c.443,1.911,1.374,3.673,1.944,5.551.955,3.145.874,6.533,1.826,9.679.4,1.32.979,2.588,1.266,3.938.669,3.146-.308,6.4-1.522,9.38s-2.692,5.916-3.086,9.108c-.277,2.248.121,4.787,1.854,6.246,1.8,1.515,4.414,1.412,6.757,1.211a7.1,7.1,0,0,0,2.452-.511c1.792-.848,2.547-2.969,2.966-4.906,1.4-6.494,1-13.225.595-19.857l-1.067-17.343a40.591,40.591,0,0,0-1.454-9.953c-.374-1.166-1.027-3.523-2.092-4.267s-4.068-.77-5.374-.832C235.8,548.244,235.865,556.8,236.858,561.087Z" transform="translate(2112.684 -313.048)" fill="#fbbebe"/><path d="M238.8,446.565a4.219,4.219,0,0,0-4.038.357,12.446,12.446,0,0,0-3.025,2.937c-2.7,3.3-5.568,7.089-5.167,11.338a28.751,28.751,0,0,0,1.174,4.647c1.813,6.778-.192,13.946.038,20.959a65.623,65.623,0,0,0,1.893,12c.179.808.466,1.743,1.248,2.015a2.71,2.71,0,0,0,1.8-.279,14.372,14.372,0,0,1,13.153,1.658c1.451-.774.908-3.223.582-4.836-.967-4.791.346-9.734,1.939-14.354s3.5-9.235,3.765-14.116c.3-5.53-1.534-10.927-3.343-16.162a5.2,5.2,0,0,0-4.378-4.334A30.2,30.2,0,0,1,238.8,446.565Z" transform="translate(2117.53 -262.558)" fill="#2f2e41"/></g></svg>