<svg xmlns="http://www.w3.org/2000/svg" width="707.63" height="489.3" viewBox="0 0 707.63 489.3"><g transform="translate(-182.672)"><rect width="703.576" height="450.601" transform="translate(182.972 0.399)" fill="#e6e6e6"/><rect width="254" height="261" transform="translate(245.187 60.907)" fill="#fff"/><rect width="254" height="317" transform="translate(594.187 65.969)" fill="#fff"/><ellipse cx="45.5" cy="6.5" rx="45.5" ry="6.5" transform="translate(799.302 470.762)" fill="#e6e6e6"/><ellipse cx="45.5" cy="6.5" rx="45.5" ry="6.5" transform="translate(344.4 470.907)" fill="#e6e6e6"/><rect width="703.576" height="29.89" transform="translate(182.672)" fill="#3f3d56"/><circle cx="5.54" cy="5.54" r="5.54" transform="translate(199.344 9.742)" fill="#e6e6e6"/><circle cx="5.54" cy="5.54" r="5.54" transform="translate(220.373 9.742)" fill="#e6e6e6"/><circle cx="5.54" cy="5.54" r="5.54" transform="translate(241.401 9.742)" fill="#e6e6e6"/><path d="M947.036,356.349H945.5V314.2a24.4,24.4,0,0,0-24.4-24.4H831.8a24.4,24.4,0,0,0-24.4,24.4V545.439a24.4,24.4,0,0,0,24.4,24.4h89.3a24.4,24.4,0,0,0,24.4-24.4V386.352h1.539Z" transform="translate(-154.849 -205.35)" fill="#3f3d56"/><path d="M921.086,296.15H909.429a8.656,8.656,0,0,1-8.014,11.924h-51.16a8.656,8.656,0,0,1-8.014-11.924H831.354a18.218,18.218,0,0,0-18.218,18.218v230.9a18.218,18.218,0,0,0,18.218,18.218h89.732A18.218,18.218,0,0,0,939.3,545.27v-230.9a18.218,18.218,0,0,0-18.218-18.218Z" transform="translate(-154.849 -205.35)" fill="#fff"/><rect width="176.544" height="8.053" transform="translate(284.09 225.776)" fill="#e6e6e6"/><rect width="176.544" height="8.053" transform="translate(284.09 251.776)" fill="#0051ff"/><rect width="176.544" height="8.053" transform="translate(284.09 277.776)" fill="#e6e6e6"/><rect width="103.064" height="8.053" transform="translate(670.839 243.346)" fill="#e6e6e6"/><rect width="103.064" height="8.053" transform="translate(670.839 268.346)" fill="#e6e6e6"/><rect width="103.064" height="8.053" transform="translate(670.839 293.346)" fill="#e6e6e6"/><rect width="17.177" height="17.177" transform="translate(784.679 401.213) rotate(90)" fill="#3f3d56"/><rect width="17.177" height="17.177" transform="translate(757.004 401.213) rotate(90)" fill="#3f3d56"/><rect width="17.177" height="17.177" transform="translate(729.33 401.213) rotate(90)" fill="#3f3d56"/><rect width="17.177" height="17.177" transform="translate(701.655 401.213) rotate(90)" fill="#3f3d56"/><rect width="17.177" height="17.177" transform="translate(673.981 401.213) rotate(90)" fill="#3f3d56"/><path d="M0,0H57.258V57.258H0Z" transform="translate(692.742 138.99)" fill="#3f3d56"/><path d="M504.454,480.943l-.741,1.482-2.223-11.117s-2.965-11.858,2.965-11.858,4.447,11.858,4.447,11.858v8.152Z" transform="translate(-154.849 -205.35)" fill="#ffb8b8"/><path d="M601.7,479.425l.741,1.482,2.223-11.117s2.965-11.858-2.965-11.858-4.447,11.858-4.447,11.858v8.152Z" transform="translate(-154.849 -205.35)" fill="#ffb8b8"/><path d="M382.215,358.94l-8.893,54.844,4.446,53.361,10.376-4.446-1.482-40.022,10.376-31.869,2.223,37.8-4.446,39.28,13.34,1.483,9.635-80.784-.741-27.422Z" fill="#2f2e41"/><path d="M537.064,665.825l-5.188,8.152v18.216a2.209,2.209,0,0,0,1.856,2.18c2.543.417,6.971.714,8.52-1.868,2.223-3.706.741-11.858.741-11.858s2.965-5.929,1.482-10.376-2.965-5.188-2.965-5.188Z" transform="translate(-154.849 -205.35)" fill="#2f2e41"/><path d="M559.3,673.237l1.482,2.223s2.223,2.223.741,3.706a28.977,28.977,0,0,0-2.965,3.706s-8.152,2.223-8.152-.741V672.5Z" transform="translate(-154.849 -205.35)" fill="#2f2e41"/><circle cx="9.824" cy="9.824" r="9.824" transform="translate(391.954 278.971)" fill="#a0616a"/><path d="M395.185,291.867l-.741,14.082,13.34.741-.741-14.082Z" fill="#ffb8b8"/><path d="M564.486,512.41l-2.1-5.14s-9.754-3.754-12.719-.048l-1.482,4.447L536.323,508.7l-6.67,14.823,5.929,42.245s15.564,20.011,36.316.741l5.929-40.021-4.447-15.564Z" transform="translate(-154.849 -205.35)" fill="#575a89"/><path d="M417.049,308.543l1.482-2.965,14.823-8.894,9.046-26.777,7,3-7.894,31.93-21.493,20.01Z" fill="#575a89"/><path d="M382.956,304.837l-1.482-1.482L365.91,293.72l-11.117-22.234L345.9,274.45l9.634,27.422,23.717,19.27Z" fill="#575a89"/><path d="M563.919,479.1l1.606-.8-2.409-.8v-.8s-12.047-4.819-13.653,3.213a16.143,16.143,0,0,0,0,19.275v2.409l12.85,1.606,1.606-4.819S571.95,483.919,563.919,479.1Z" transform="translate(-154.849 -205.35)" fill="#2f2e41"/><rect width="176" height="101" transform="translate(284.187 90.907)" fill="#e6e6e6"/><path d="M963.051,496.584l.815-5.26s4.753-10.805,1-11.388-6.891,9.7-6.891,9.7l1.375,10.986Z" transform="translate(-154.849 -205.35)" fill="#ffb8b8"/><path d="M846.67,321.051l-33.581-6.745-3.9-24.459-9.885-.763.483,31.623L828.962,336Z" fill="#575a89"/><path d="M846.67,321.051l-33.581-6.745-3.9-24.459-9.885-.763.483,31.623L828.962,336Z" opacity="0.2"/><rect width="103.064" height="8.053" transform="translate(858.377 284.764) rotate(180)" fill="#0051ff"/><path d="M956.49,494.78l.007-5.323s3.056-11.4-.746-11.407-5.336,10.639-5.336,10.639l3.028,10.649Z" transform="translate(-154.849 -205.35)" fill="#ffb8b8"/><path d="M1000.2,510.025l4.607-1.123a11.862,11.862,0,0,0,11.642-14.211h0a15.5,15.5,0,0,0-15.485-15.524h0a15.5,15.5,0,0,0-15.524,15.485h0a12.321,12.321,0,0,0,14.759,15.373Z" transform="translate(-154.849 -205.35)" fill="#2f2e41"/><path d="M818.254,381.458l3.751,41.066,6.792,40.309,11.406.014L838.732,423.3l-6.023-47.912Z" fill="#2f2e41"/><path d="M985.17,665.9l-7.61,4.553s-12.168,1.505-9.892,5.31,28.893,1.557,28.895.036-.748-9.886-2.269-9.888Z" transform="translate(-154.849 -205.35)" fill="#2f2e41"/><path d="M1006.771,583.26s-.214,5.871-5.548,14.989l.725,28.135,27.33,35.012-9.9,8.352-33.409-38.061-8.307-45.634,10.659-10.632Z" transform="translate(-154.849 -205.35)" fill="#2f2e41"/><path d="M1027,661.394s9.123,1.532,7.6,5.332-5.349,21.284-15.232,18.991c0,0-4.562-.006-3.038-3.045a55,55,0,0,1,3.048-5.319l.012-9.885Z" transform="translate(-154.849 -205.35)" fill="#2f2e41"/><circle cx="11.406" cy="11.406" r="11.406" transform="translate(829.009 282.636)" fill="#ffb8b8"/><path d="M845.728,301.652l-.016,12.926-12.166-.015,1.537-12.924Z" fill="#ffb8b8"/><path d="M985.359,515.347l3.687-.906,11.521.925s6.075,6.091,5.313,7.611-4.611,38.774-4.611,38.774l6.81,26.622-24.334,1.49-12.164-1.536,2.341-47.9s-5.306-12.933,1.542-16.727A29.954,29.954,0,0,0,985.359,515.347Z" transform="translate(-154.849 -205.35)" fill="#575a89"/><path d="M844.193,313.056l-34.215-1.564L802.4,287.911l-9.886.747,5.283,31.183,31.163,10.685Z" fill="#575a89"/><circle cx="7.359" cy="7.359" r="7.359" transform="translate(855.074 270.921)" fill="#2f2e41"/><path d="M1010.492,479.674a7.355,7.355,0,0,1,8.807-7.2,7.355,7.355,0,1,0-4.588,13.862,7.353,7.353,0,0,1-4.219-6.657Z" transform="translate(-154.849 -205.35)" fill="#2f2e41"/><path d="M1004.179,483.847l-9.921-1.827-7.63,4.782A11.573,11.573,0,0,0,981.3,498.1l7.641-1.937,1.711-4.29,2.038,3.34,8.267,14.454,8.37-4.552,5.333-8.358Z" transform="translate(-154.849 -205.35)" fill="#2f2e41"/><rect width="2" height="202.921" transform="translate(283.689 91.775) rotate(-60.15)" fill="#fff"/><rect width="202.921" height="2" transform="matrix(0.867, -0.498, 0.498, 0.867, 283.684, 191.035)" fill="#fff"/><rect width="2" height="80.61" transform="translate(692.484 139.612) rotate(-45)" fill="#fff"/><rect width="80.61" height="2" transform="translate(692.484 195.199) rotate(-45)" fill="#fff"/></g></svg>