<svg xmlns="http://www.w3.org/2000/svg" width="888" height="651.932" viewBox="0 0 888 651.932"><ellipse cx="96.348" cy="20.007" rx="96.348" ry="20.007" transform="translate(0.331 611.786)" fill="#e6e6e6"/><ellipse cx="33.216" cy="31.114" rx="33.216" ry="31.114" transform="translate(21.864 112.537)" fill="#2f2e41"/><path d="M307.784,461.514l8.409,11.773s40.363,8.409,25.227,21.023-37-11.773-37-11.773L292.647,467.4Z" transform="translate(-156 -124.034)" fill="#ffb8b8"/><path d="M264.056,327.81s10.932,0,13.454,15.136,5.045,65.591,5.045,65.591,35.318,46.25,29.432,52.136-12.614,16.818-16.818,15.136-40.363-51.3-40.363-51.3Z" transform="translate(-156 -124.034)" fill="#e6e6e6"/><path d="M230.42,284.923s.841,32.8,10.932,34.477,6.727,12.614,6.727,12.614-32.8,19.341-54.659,0l-4.2-10.091s15.136-10.932,8.409-26.068Z" transform="translate(-156 -124.034)" fill="#ffb8b8"/><path d="M286.761,486.741s49.613,92.5,31.114,121.09-46.25,87.454-50.454,87.454-27.75-11.773-26.068-19.341,26.909-63.909,33.636-68.954,3.364-18.5,2.523-19.341-28.591-45.409-28.591-45.409.841,70.636-2.523,81.568.841,89.136-3.364,92.5-23.545,9.25-26.909,4.2-13.454-81.568-6.727-99.227L196.784,500.2Z" transform="translate(-156 -124.034)" fill="#2f2e41"/><path d="M241.352,711.263l21.023,38.682s30.273,21.864,9.25,25.227-33.636-5.045-33.636-5.045l-18.5-13.455V717.99Z" transform="translate(-156 -124.034)" fill="#2f2e41"/><path d="M269.943,689.4l-10.932,26.068s-4.2,10.932,0,13.455,15.977,17.659,8.409,19.341a24.646,24.646,0,0,1-4.621.459A46.726,46.726,0,0,1,228.828,734.9l-6.817-6.817s23.352-53.774,23.028-53.376S269.943,689.4,269.943,689.4Z" transform="translate(-156 -124.034)" fill="#2f2e41"/><circle cx="28.591" cy="28.591" r="28.591" transform="translate(24.807 123.889)" fill="#ffb8b8"/><path d="M193,316.457l8.83,8.829s26.909,10.091,39.523,0c0,0-4.625-9.67-4.625-8.829s36.579,6.307,39.943,21.443-2.523,41.2-2.523,41.2,23.545,111,14.3,113.522-95.863,23.545-95.022,7.568-6.727-81.568-6.727-81.568l-29.432-56.341s4.2-18.5,14.3-24.386S193,316.457,193,316.457Z" transform="translate(-156 -124.034)" fill="#e6e6e6"/><path d="M230.42,480.855l10.932,6.727s42.045,28.591,20.182,33.636-34.477-20.182-34.477-20.182l-8.409-10.091Z" transform="translate(-156 -124.034)" fill="#ffb8b8"/><path d="M168.193,357.241l-7.568,7.568s-5.045,70.636,5.045,84.932,56.341,52.977,58.863,50.454,18.5-15.136,15.136-16.818-48.085-48.41-48.085-48.41l3.517-65.112Z" transform="translate(-156 -124.034)" opacity="0.1"/><path d="M164.83,354.719l-7.568,7.568s-5.045,70.636,5.045,84.932,56.341,52.977,58.863,50.454,18.5-15.136,15.136-16.818-48.085-48.41-48.085-48.41l3.517-65.112Z" transform="translate(-156 -124.034)" fill="#e6e6e6"/><path d="M221.222,235.9s9.719-3.534,22.972,3.976l-7.068,1.767s10.6.884,11.928,15.02h-4.859s3.092,12.369,0,15.9l-1.988-3.755L236.463,280.3l-1.325-5.743-2.651.884-1.767-9.277s-4.418,6.626-7.952,7.068v-5.743s-9.719,11.044-12.811,10.6l4.418-6.185-6.185,1.325,2.651-4.418-15.9,4.418,3.534-4.418-11.044,3.534-5.3,2.209s-7.51-17.229,3.092-29.156S211.282,230.823,221.222,235.9Z" transform="translate(-156 -124.034)" fill="#2f2e41"/><rect width="643.862" height="412.358" transform="translate(221.885 68.991)" fill="#e6e6e6"/><rect width="607.039" height="336.243" transform="translate(240.296 120.711)" fill="#fff"/><path d="M0,0H643.862V27.354H0Z" transform="translate(221.61 68.626)" fill="#696969"/><circle cx="5.07" cy="5.07" r="5.07" transform="translate(236.868 77.541)" fill="#fff"/><circle cx="5.07" cy="5.07" r="5.07" transform="translate(256.111 77.541)" fill="#fff"/><circle cx="5.07" cy="5.07" r="5.07" transform="translate(275.355 77.541)" fill="#fff"/><rect width="155.981" height="266.467" transform="translate(295.454 155.599)" fill="#e6e6e6"/><rect width="129.984" height="73.348" transform="translate(478.36 155.599)" fill="#0051ff"/><rect width="129.984" height="78.919" transform="translate(478.36 249.373)" fill="#e6e6e6"/><rect width="129.984" height="73.348" transform="translate(478.36 348.718)" fill="#e6e6e6"/><rect width="155.981" height="116.125" transform="translate(636.198 155.599)" fill="#e6e6e6"/><path d="M0,0H155.981V116.125H0Z" transform="translate(636.198 305.941)" fill="#0051ff"/><path d="M544.691,188.755l-2.036-.541L587.089,21.06H844.827v2.106H588.708Z" fill="#3f3d56"/><path d="M1021.887,168.26A22.113,22.113,0,1,1,1044,146.147a22.113,22.113,0,0,1-22.113,22.113Zm0-42.12a20.007,20.007,0,1,0,20.007,20.007,20.007,20.007,0,0,0-20.007-20.007Z" transform="translate(-156 -124.034)" fill="#3f3d56"/><circle cx="8.424" cy="8.424" r="8.424" transform="translate(857.463 13.689)" fill="#0051ff"/><path d="M672.947,530.706H415.208V528.6h256.12l44.017-165.59,2.036.541Z" fill="#3f3d56"/><path d="M550.149,675.8a22.113,22.113,0,1,1,22.113-22.113A22.113,22.113,0,0,1,550.149,675.8Zm0-42.12a20.007,20.007,0,1,0,20.007,20.007A20.007,20.007,0,0,0,550.149,633.68Z" transform="translate(-156 -124.034)" fill="#3f3d56"/><circle cx="8.424" cy="8.424" r="8.424" transform="translate(385.725 521.229)" fill="#0051ff"/></svg>